<?xml version="1.0" standalone="no"?>
  <!DOCTYPE svg PUBLIC "-//W3C//DTD SVG 1.1//EN" "http://www.w3.org/Graphics/SVG/1.1/DTD/svg11.dtd" >
  <svg>
  <metadata>
  Created by font-carrier
  </metadata>
  <defs>
  <font id="TTTravels-ExtraBold" horiz-adv-x="3149" vert-adv-y="3149" >
    <font-face
      
      font-family="TT Travels ExtraBold"
      
      font-weight="400"
      
      font-stretch="normal"
      
      units-per-em="2048"
      
      ascent="1843"
      
      descent="-614"
      
    />
      <missing-glyph />

      

      
      <glyph glyph-name="uni21" unicode="&#x21;" d="M469 471L520 1157L520 1434L143 1434L143 1157L195 471ZM188 30C224-3 272-20 332-20C392-20 440-3 476 30C512 63 530 108 530 164C530 220 512 265 476 298C440 331 392 348 332 348C272 348 224 331 188 298C151 265 133 220 133 164C133 108 151 63 188 30Z"  horiz-adv-x="663" vert-adv-y="2048"  />

      
      <glyph glyph-name="uni22" unicode="&#x22;" d="M123 1434L123 1266L160 840L393 840L430 1266L430 1434ZM578 1434L578 1266L614 840L848 840L885 1266L885 1434Z"  horiz-adv-x="1007" vert-adv-y="2048"  />

      
      <glyph glyph-name="uni23" unicode="&#x23;" d="M997 0L1075 319L1333 319L1333 557L1133 557L1210 877L1470 877L1470 1114L1268 1114L1346 1434L1065 1434L987 1114L717 1114L795 1434L514 1434L436 1114L195 1114L195 877L379 877L301 557L41 557L41 319L244 319L166 0L446 0L524 319L795 319L717 0ZM934 881L854 553L578 553L657 881Z"  horiz-adv-x="1511" vert-adv-y="2048"  />

      
      <glyph glyph-name="uni24" unicode="&#x24;" d="M911-246L911-6L958 0C1022 8 1117 45 1206 102C1250 131 1288 174 1319 231C1350 288 1366 355 1366 430C1366 513 1351 584 1320 642C1289 700 1250 743 1201 772C1152 801 1098 824 1039 841C920 875 796 885 700 901C603 917 535 956 535 1024C535 1109 594 1151 713 1151C838 1151 891 1092 891 1016L891 979L1300 979L1300 1016C1300 1085 1286 1147 1259 1202C1231 1257 1200 1298 1166 1325C1131 1352 1092 1376 1047 1395C1002 1414 970 1425 953 1429C936 1432 922 1435 911 1436L911 1679L535 1679L535 1438L492 1430C437 1418 350 1380 270 1324C229 1296 195 1255 167 1202C139 1149 125 1088 125 1020C125 937 140 866 171 808C202 750 241 707 290 678C338 649 392 627 452 610C571 576 695 563 792 547C888 531 956 491 956 426C956 333 868 283 729 283C581 283 502 326 502 438L502 498L92 498L92 440C92 364 108 297 140 238C172 179 208 136 247 107C286 78 330 54 381 35C432 16 467 5 487 2C507-1 523-3 535-4L535-246Z"  horiz-adv-x="1458" vert-adv-y="2048"  />

      
      <glyph glyph-name="uni25" unicode="&#x25;" d="M557 0L1540 1434L1229 1434L246 0ZM157 825C220 761 308 729 420 729C532 729 620 761 683 825C746 888 778 977 778 1092C778 1207 746 1296 683 1359C620 1422 532 1454 420 1454C308 1454 220 1422 157 1359C93 1296 61 1207 61 1092C61 977 93 888 157 825ZM420 942C361 942 332 992 332 1092C332 1191 361 1241 420 1241C479 1241 508 1191 508 1092C508 992 479 942 420 942ZM1629 610C1566 673 1478 705 1366 705C1254 705 1166 673 1103 610C1040 546 1008 457 1008 342C1008 227 1040 138 1103 75C1166 12 1254-20 1366-20C1478-20 1566 12 1629 75C1692 138 1724 227 1724 342C1724 457 1692 546 1629 610ZM1366 492C1425 492 1454 442 1454 343C1454 243 1425 193 1366 193C1307 193 1278 243 1278 343C1278 442 1307 492 1366 492Z"  horiz-adv-x="1785" vert-adv-y="2048"  />

      
      <glyph glyph-name="uni26" unicode="&#x26;" d="M1452 188L1208 461L1208 961L913 961L913 780L616 1116L616 1130L1225 1130L1225 1434L178 1434L178 1126L418 868L418 856L385 848C341 837 275 794 214 737C183 708 157 666 135 611C113 556 102 494 102 426C102 291 150 183 245 102C340 21 482-20 672-20C779-20 881 9 937 39C965 54 991 71 1015 91C1063 131 1070 144 1075 152L1239-20ZM682 307C565 307 492 358 492 457C492 512 519 558 547 579C560 589 576 597 594 603C630 615 641 616 649 616L862 387L848 369C832 341 766 307 682 307Z"  horiz-adv-x="1421" vert-adv-y="2048"  />

      
      <glyph glyph-name="uni27" unicode="&#x27;" d="M123 1434L123 1266L160 840L393 840L430 1266L430 1434Z"  horiz-adv-x="552" vert-adv-y="2048"  />

      
      <glyph glyph-name="uni28" unicode="&#x28;" d="M348-219C504-414 699-512 932-512L932-221C809-221 704-147 615 1C526 149 481 340 481 574C481 807 526 998 615 1146C704 1294 809 1368 932 1368L932 1659C699 1659 504 1561 348 1366C191 1171 113 907 113 574C113 241 191-24 348-219Z"  horiz-adv-x="962" vert-adv-y="2048"  />

      
      <glyph glyph-name="uni29" unicode="&#x29;" d="M616 1366C459 1561 264 1659 31 1659L31 1368C154 1368 259 1294 348 1146C437 998 481 807 481 574C481 340 437 149 348 1C259-147 154-221 31-221L31-512C264-512 459-414 616-219C772-24 850 241 850 574C850 907 772 1171 616 1366Z"  horiz-adv-x="962" vert-adv-y="2048"  />

      
      <glyph glyph-name="uni2a" unicode="&#x2a;" d="M405 1624C380 1602 367 1572 367 1534C367 1495 387 1449 428 1397C469 1345 489 1303 489 1270L518 1270C518 1303 539 1345 580 1397C621 1449 641 1495 641 1534C641 1572 628 1602 603 1624C578 1646 545 1657 504 1657C463 1657 430 1646 405 1624ZM913 1362C882 1438 818 1473 750 1446C652 1418 627 1259 547 1237L555 1208C586 1221 634 1218 698 1199C761 1180 811 1177 848 1190C916 1217 940 1286 913 1362ZM94 1362C67 1286 92 1217 160 1190C197 1176 247 1179 311 1198C374 1217 422 1220 453 1208L461 1237C381 1259 355 1418 258 1446C190 1473 125 1438 94 1362ZM772 864C835 913 847 984 803 1047C778 1078 734 1102 669 1117C604 1132 562 1152 541 1178L520 1161C539 1135 549 1089 549 1023C549 957 561 908 584 877C629 820 704 815 772 864ZM236 864C304 815 377 820 424 877C449 908 460 957 459 1023C457 1089 466 1135 487 1161L467 1178C446 1152 404 1132 339 1117C274 1102 230 1078 205 1047C161 983 173 913 236 864Z"  horiz-adv-x="1007" vert-adv-y="2048"  />

      
      <glyph glyph-name="uni2b" unicode="&#x2b;" d="M664 434L979 434L979 672L664 672L664 983L418 983L418 672L102 672L102 434L418 434L418 123L664 123Z"  horiz-adv-x="1081" vert-adv-y="2048"  />

      
      <glyph glyph-name="uni2c" unicode="&#x2c;" d="M254-262C318-262 371-229 414-162C456-95 477-2 477 117C476 272 406 350 268 350C148 350 72 281 72 166C72 54 118 7 163 3C208-1 254-35 254-123Z"  horiz-adv-x="548" vert-adv-y="2048"  />

      
      <glyph glyph-name="uni2d" unicode="&#x2d;" d="M72 543L72 250L590 465L590 758Z"  horiz-adv-x="661" vert-adv-y="2048"  />

      
      <glyph glyph-name="uni2e" unicode="&#x2e;" d="M127 31C164-3 213-20 275-20C336-20 385-3 422 31C459 65 477 111 477 170C477 229 459 275 422 309C385 343 336 360 275 360C213 360 164 343 127 309C90 275 72 229 72 170C72 111 90 65 127 31Z"  horiz-adv-x="548" vert-adv-y="2048"  />

      
      <glyph glyph-name="uni2f" unicode="&#x2f;" d="M297-246L1077 1434L780 1434L0-246Z"  horiz-adv-x="1077" vert-adv-y="2048"  />

      
      <glyph glyph-name="uni30" unicode="&#x30;" d="M298 181C421 47 592-20 809-20C1026-20 1197 47 1320 181C1443 314 1505 493 1505 717C1505 941 1443 1120 1320 1254C1197 1387 1026 1454 809 1454C592 1454 421 1387 298 1254C175 1120 113 941 113 717C113 493 175 314 298 181ZM1024 425C976 352 904 315 809 315C714 315 642 352 594 425C546 498 522 596 522 717C522 838 546 936 594 1009C642 1082 714 1118 809 1118C904 1118 976 1082 1024 1009C1072 936 1096 838 1096 717C1096 596 1072 498 1024 425Z"  horiz-adv-x="1617" vert-adv-y="2048"  />

      
      <glyph glyph-name="uni31" unicode="&#x31;" d="M360 907L360 0L750 0L750 1434L426 1434L61 1143L61 907Z"  horiz-adv-x="903" vert-adv-y="2048"  />

      
      <glyph glyph-name="uni32" unicode="&#x32;" d="M1397 0L1397 311L561 311C561 337 590 362 647 386C704 410 774 435 856 462C938 489 1020 521 1102 558C1184 595 1254 650 1311 722C1368 794 1397 878 1397 975C1397 1130 1343 1249 1235 1331C1127 1413 973 1454 774 1454C359 1454 152 1282 152 938L152 870L541 870L541 938C541 995 559 1043 595 1080C631 1117 691 1135 774 1135C927 1135 1008 1071 1008 975C1008 926 986 883 941 846C896 809 841 780 775 759C709 738 637 713 560 684C483 655 411 625 345 594C279 563 224 517 180 457C135 397 113 327 113 246L113 0Z"  horiz-adv-x="1519" vert-adv-y="2048"  />

      
      <glyph glyph-name="uni33" unicode="&#x33;" d="M686 1122L858 1161L858 1122L692 1079L270 858L270 637L723 637C891 637 975 581 975 469C975 356 891 299 723 299C555 299 471 356 471 469L471 502L82 502L82 469C82 149 300-20 723-20C1143-20 1364 150 1364 467C1364 600 1323 704 1241 780C1159 855 1048 893 907 893L727 852L727 891L893 934L1288 1122L1288 1434L139 1434L139 1122Z"  horiz-adv-x="1456" vert-adv-y="2048"  />

      
      <glyph glyph-name="uni34" unicode="&#x34;" d="M1243 0L1243 283L1432 283L1432 592L1243 592L1243 1434L729 1434L51 592L51 283L854 283L854 0ZM915 1186L858 1020L858 588L449 588L449 598L797 1028L877 1186Z"  horiz-adv-x="1513" vert-adv-y="2048"  />

      
      <glyph glyph-name="uni35" unicode="&#x35;" d="M856 963C787 963 725 956 671 942C617 927 583 916 570 908C556 899 546 892 541 887L532 887L532 1122L1294 1122L1294 1434L143 1434L143 582L532 582L537 590C542 603 563 624 595 643C626 662 690 676 766 676C910 676 1004 612 1004 487C1004 428 982 382 937 349C892 316 836 299 768 299C672 299 604 324 574 357C544 389 532 416 532 440L143 440C143 148 361-20 768-20C1175-20 1393 159 1393 487C1393 643 1343 761 1244 842C1144 923 1015 963 856 963Z"  horiz-adv-x="1484" vert-adv-y="2048"  />

      
      <glyph glyph-name="uni36" unicode="&#x36;" d="M1382 997C1382 1124 1330 1232 1227 1321C1123 1410 971 1454 770 1454C551 1454 387 1387 278 1253C168 1118 113 940 113 717L113 702C113 477 167 301 276 173C384 44 552-20 780-20C983-20 1143 24 1260 111C1376 198 1434 320 1434 475C1434 613 1382 723 1279 805C1176 887 1035 928 858 928C787 928 724 918 668 899C612 880 578 865 565 854C552 843 542 833 535 825L526 825C522 914 543 988 588 1047C633 1106 694 1135 772 1135C946 1134 967 1011 969 997L1382 997ZM610 344C567 374 545 416 545 469C545 522 567 564 610 594C653 624 711 639 785 639C858 639 917 624 960 594C1003 564 1024 522 1024 469C1024 416 1003 374 960 344C917 314 858 299 785 299C711 299 653 314 610 344Z"  horiz-adv-x="1536" vert-adv-y="2048"  />

      
      <glyph glyph-name="uni37" unicode="&#x37;" d="M643 0L1235 1106L1235 1434L61 1434L61 1106L809 1106L219 0Z"  horiz-adv-x="1296" vert-adv-y="2048"  />

      
      <glyph glyph-name="uni38" unicode="&#x38;" d="M150 1073C150 1026 160 984 181 945C201 906 223 876 248 855C273 834 301 815 334 800C399 768 416 765 432 762L432 745L397 737C354 729 282 694 218 646C154 598 102 505 102 393C102 118 321-20 760-21C1198-21 1417 117 1417 393C1417 449 1405 500 1382 545C1358 590 1332 624 1303 647C1274 670 1241 691 1203 708C1164 725 1138 735 1123 738C1108 741 1096 744 1087 745L1087 762L1116 770C1155 781 1215 812 1271 855C1327 898 1370 980 1370 1073C1370 1184 1318 1275 1214 1347C1109 1418 958 1454 760 1454C562 1454 411 1418 307 1347C202 1275 150 1184 150 1073ZM948 324C907 294 845 279 760 279C675 279 613 294 573 324C532 354 512 392 512 439C512 485 532 523 573 553C613 583 675 598 760 598C845 598 907 583 948 553C988 523 1008 485 1008 439C1008 392 988 354 948 324ZM613 1115C648 1142 697 1155 760 1155C823 1155 872 1142 908 1115C943 1088 961 1054 961 1012C961 969 943 935 908 908C872 881 823 868 760 868C697 868 648 881 613 908C577 935 559 969 559 1012C559 1054 577 1088 613 1115Z"  horiz-adv-x="1519" vert-adv-y="2048"  />

      
      <glyph glyph-name="uni39" unicode="&#x39;" d="M113 436C113 309 167 202 276 113C384 24 540-20 745-20C973-20 1143 47 1255 182C1367 316 1423 494 1423 717L1423 731C1423 956 1369 1133 1261 1262C1152 1390 984 1454 756 1454C553 1454 393 1410 277 1323C160 1235 102 1113 102 958C102 821 154 711 257 629C360 547 501 506 678 506C749 506 812 516 868 535C924 554 959 569 972 580C985 591 994 600 1001 608L1010 608C1014 519 992 446 945 387C898 328 830 299 743 299C675 299 618 320 588 343C541 378 526 429 526 436L113 436ZM927 1090C970 1059 991 1018 991 965C991 912 970 870 927 840C884 810 825 795 752 795C678 795 620 810 577 840C534 870 512 912 512 965C512 1018 534 1059 577 1090C620 1120 678 1135 752 1135C825 1135 884 1120 927 1090Z"  horiz-adv-x="1536" vert-adv-y="2048"  />

      
      <glyph glyph-name="uni3a" unicode="&#x3a;" d="M127 31C164-3 213-20 275-20C336-20 385-3 422 31C459 65 477 111 477 170C477 229 459 275 422 309C385 343 336 360 275 360C213 360 164 343 127 309C90 275 72 229 72 170C72 111 90 65 127 31ZM127 715C164 681 213 664 275 664C336 664 385 681 422 715C459 749 477 795 477 854C477 913 459 959 422 993C385 1027 336 1044 275 1044C213 1044 164 1027 127 993C90 959 72 913 72 854C72 795 90 749 127 715Z"  horiz-adv-x="548" vert-adv-y="2048"  />

      
      <glyph glyph-name="uni3b" unicode="&#x3b;" d="M127 715C164 681 213 664 275 664C336 664 385 681 422 715C459 749 477 795 477 854C477 913 459 959 422 993C385 1027 336 1044 275 1044C213 1044 164 1027 127 993C90 959 72 913 72 854C72 795 90 749 127 715ZM254-262C318-262 371-229 414-162C456-95 477-2 477 117C476 272 406 350 268 350C148 350 72 281 72 166C72 54 118 7 163 3C208-1 254-35 254-123Z"  horiz-adv-x="548" vert-adv-y="2048"  />

      
      <glyph glyph-name="uni3c" unicode="&#x3c;" d="M1141-20L1141 270L344 498L344 526L1141 754L1141 1044L51 698L51 326Z"  horiz-adv-x="1222" vert-adv-y="2048"  />

      
      <glyph glyph-name="uni3d" unicode="&#x3d;" d="M977 858L102 858L102 621L977 621ZM977 467L102 467L102 229L977 229Z"  horiz-adv-x="1079" vert-adv-y="2048"  />

      
      <glyph glyph-name="uni3e" unicode="&#x3e;" d="M82 1044L82 754L879 526L879 498L82 270L82-20L1171 326L1171 698Z"  horiz-adv-x="1222" vert-adv-y="2048"  />

      
      <glyph glyph-name="uni3f" unicode="&#x3f;" d="M495 30C531-3 579-20 639-20C699-20 747-3 784 30C820 63 838 108 838 164C838 220 820 265 784 298C747 331 699 348 639 348C579 348 531 331 495 298C458 265 440 220 440 164C440 108 458 63 495 30ZM438 973L438 1028C438 1101 527 1151 672 1151C827 1151 905 1113 905 1036C905 998 889 968 858 945C827 922 789 904 745 891C700 877 656 862 612 846C523 813 451 734 451 614L451 471L827 471L827 524C827 564 843 595 875 617C906 638 944 656 989 670C1033 683 1077 701 1122 722C1210 765 1282 869 1282 1036C1282 1304 1081 1454 672 1454C474 1454 323 1417 218 1342C113 1267 61 1162 61 1028L61 973Z"  horiz-adv-x="1343" vert-adv-y="2048"  />

      
      <glyph glyph-name="uni40" unicode="&#x40;" d="M969-360C1058-360 1142-347 1223-321C1303-294 1355-273 1379-257C1402-241 1420-228 1432-217C1425-208 1399-173 1354-114C1309-54 1283-19 1276-10L1245-33C1224-48 1189-63 1138-79C1087-94 1030-102 969-102C846-102 741-71 654-10C481 113 412 305 412 537C412 724 466 877 574 997C681 1116 831 1176 1022 1176C1227 1176 1383 1123 1491 1016C1599 909 1653 760 1653 569C1653 523 1652 486 1649 457C1646 428 1638 402 1624 378C1609 354 1589 342 1563 342C1496 342 1458 391 1458 475L1458 944L1174 944L1174 827L1159 827L1143 860C1133 882 1109 904 1071 927C1033 950 986 961 930 961C835 961 756 921 693 841C630 761 598 655 598 524C598 391 634 284 706 204C777 124 874 84 995 84C1083 84 1160 110 1203 138C1224 151 1243 167 1260 186C1292 222 1297 232 1300 240L1311 240L1319 223C1330 202 1362 170 1403 140C1444 110 1514 84 1593 84C1696 84 1781 125 1850 207C1918 288 1952 409 1952 569C1952 820 1871 1027 1710 1190C1549 1353 1319 1434 1022 1434C757 1434 540 1351 369 1184C198 1017 113 801 113 535C113 268 191 53 348-113C504-278 711-360 969-360ZM1028 702C1115 702 1159 642 1159 522C1159 402 1115 342 1028 342C941 342 897 402 897 522C897 642 941 702 1028 702Z"  horiz-adv-x="2043" vert-adv-y="2048"  />

      
      <glyph glyph-name="uni41" unicode="&#x41;" d="M563 1434L-10 0L397 0L485 219L1137 219L1225 0L1632 0L1059 1434ZM594 514L799 1055L823 1055L1028 514Z"  horiz-adv-x="1622" vert-adv-y="2048"  />

      
      <glyph glyph-name="uni42" unicode="&#x42;" d="M1434 399C1434 511 1385 604 1333 651C1307 674 1278 694 1245 710C1180 741 1161 742 1145 745L1145 764L1167 770C1198 781 1244 811 1288 852C1332 893 1366 972 1366 1065C1366 1311 1210 1434 897 1434L154 1434L154 0L915 0C1097 0 1229 32 1311 95C1393 158 1434 260 1434 399ZM803 1137C906 1137 957 1091 957 1000C957 908 906 862 803 862L543 862L543 1137L803 1137ZM848 600C968 600 1024 541 1024 449C1024 356 968 297 848 297L543 297L543 600L848 600Z"  horiz-adv-x="1525" vert-adv-y="2048"  />

      
      <glyph glyph-name="uni43" unicode="&#x43;" d="M609 1006C667 1081 751 1118 862 1118C977 1118 1067 1074 1108 1029C1129 1006 1146 980 1160 950C1187 890 1186 873 1186 860L1595 860C1595 1033 1528 1176 1393 1287C1258 1398 1081 1454 862 1454C634 1454 452 1389 317 1258C181 1127 113 946 113 717C113 488 181 308 317 177C452 46 634-20 862-20C1081-20 1258 36 1393 147C1528 258 1595 400 1595 573L1186 573L1182 547C1177 511 1152 457 1109 407C1066 357 977 315 862 315C751 315 667 353 609 428C551 503 522 600 522 717C522 834 551 931 609 1006Z"  horiz-adv-x="1697" vert-adv-y="2048"  />

      
      <glyph glyph-name="uni44" unicode="&#x44;" d="M154 1434L154 0L758 0C998 0 1184 62 1316 186C1447 309 1513 486 1513 717C1513 948 1447 1125 1316 1249C1184 1372 998 1434 758 1434ZM758 1106C874 1106 961 1071 1018 1000C1075 929 1104 834 1104 717C1104 600 1075 506 1018 435C961 364 874 328 758 328L543 328L543 1106Z"  horiz-adv-x="1626" vert-adv-y="2048"  />

      
      <glyph glyph-name="uni45" unicode="&#x45;" d="M1378 0L1378 311L543 311L543 586L1239 586L1239 881L543 881L543 1122L1378 1122L1378 1434L154 1434L154 0Z"  horiz-adv-x="1490" vert-adv-y="2048"  />

      
      <glyph glyph-name="uni46" unicode="&#x46;" d="M543 0L543 498L1206 498L1206 793L543 793L543 1122L1350 1122L1350 1434L154 1434L154 0Z"  horiz-adv-x="1411" vert-adv-y="2048"  />

      
      <glyph glyph-name="uni47" unicode="&#x47;" d="M1599 0L1599 748L852 748L852 477L1167 477L1167 473L1159 457C1148 434 1117 401 1073 371C1029 341 951 315 858 315C739 315 654 352 601 426C548 500 522 597 522 717C522 836 550 932 607 1007C664 1081 749 1118 862 1118C961 1118 1045 1081 1087 1043C1108 1024 1126 1002 1143 977C1175 928 1177 912 1180 901L1593 901L1589 932C1575 991 1542 1119 1433 1237C1395 1276 1352 1312 1304 1345C1207 1409 1045 1454 862 1454C630 1454 447 1389 314 1258C180 1127 113 946 113 715C113 484 178 304 307 175C436 45 614-20 842-20C957-20 1064 15 1124 49C1154 66 1182 85 1208 107C1260 150 1267 163 1272 174L1284 174L1284 0Z"  horiz-adv-x="1742" vert-adv-y="2048"  />

      
      <glyph glyph-name="uni48" unicode="&#x48;" d="M1552 0L1552 1434L1163 1434L1163 918L543 918L543 1434L154 1434L154 0L543 0L543 590L1163 590L1163 0Z"  horiz-adv-x="1705" vert-adv-y="2048"  />

      
      <glyph glyph-name="uni49" unicode="&#x49;" d="M113 1434L113 1122L453 1122L453 311L113 311L113 0L1182 0L1182 311L842 311L842 1122L1182 1122L1182 1434Z"  horiz-adv-x="1294" vert-adv-y="2048"  />

      
      <glyph glyph-name="uni4a" unicode="&#x4a;" d="M507 375C476 414 461 463 461 520L461 596L72 596L72 520C72 160 266-20 654-21C1041-21 1235 159 1235 520L1235 1434L338 1434L338 1106L846 1106L846 520C846 463 831 414 800 375C769 335 721 315 654 315C587 315 538 335 507 375Z"  horiz-adv-x="1378" vert-adv-y="2048"  />

      
      <glyph glyph-name="uni4b" unicode="&#x4b;" d="M1055 1434L543 752L543 1434L154 1434L154 0L543 0L543 700L1081 0L1532 0L965 727L1505 1434Z"  horiz-adv-x="1521" vert-adv-y="2048"  />

      
      <glyph glyph-name="uni4c" unicode="&#x4c;" d="M543 328L543 1434L154 1434L154 0L1346 0L1346 328Z"  horiz-adv-x="1386" vert-adv-y="2048"  />

      
      <glyph glyph-name="uni4d" unicode="&#x4d;" d="M987 594L971 784L772 1434L154 1434L154 0L543 0L543 903L487 1098L526 1098L594 903L776 324L1231 324L1413 903L1481 1098L1520 1098L1464 903L1464 0L1853 0L1853 1434L1235 1434L1036 784L1020 594Z"  horiz-adv-x="2007" vert-adv-y="2048"  />

      
      <glyph glyph-name="uni4e" unicode="&#x4e;" d="M1591 0L1591 1434L1202 1434L1202 528L1270 336L1231 336L1147 528L782 1434L154 1434L154 0L543 0L543 905L475 1098L514 1098L598 905L963 0Z"  horiz-adv-x="1744" vert-adv-y="2048"  />

      
      <glyph glyph-name="uni4f" unicode="&#x4f;" d="M1425 1258C1289 1389 1104 1454 871 1454C637 1454 452 1389 317 1258C181 1127 113 946 113 717C113 488 181 308 317 177C452 46 637-20 871-20C1104-20 1289 46 1425 177C1560 308 1628 488 1628 717C1628 946 1560 1127 1425 1258ZM1131 427C1072 352 985 315 870 315C755 315 669 352 610 427C551 502 522 598 522 717C522 836 551 932 610 1007C669 1081 755 1118 870 1118C985 1118 1072 1081 1131 1007C1190 932 1219 836 1219 717C1219 598 1190 502 1131 427Z"  horiz-adv-x="1740" vert-adv-y="2048"  />

      
      <glyph glyph-name="uni50" unicode="&#x50;" d="M782 348C1227 348 1423 531 1423 891C1423 1251 1227 1434 782 1434L154 1434L154 0L543 0L543 348ZM543 672L543 1110L782 1110C937 1110 1014 1037 1014 891C1014 745 937 672 782 672Z"  horiz-adv-x="1525" vert-adv-y="2048"  />

      
      <glyph glyph-name="uni51" unicode="&#x51;" d="M1628 717C1628 946 1560 1127 1425 1258C1289 1389 1104 1454 871 1454C637 1454 452 1389 317 1258C181 1127 113 946 113 717C113 492 178 314 307 185C436 55 611-13 831-20L860-61C899-118 992-205 1111-286C1170-326 1248-360 1344-388C1439-416 1541-430 1649-430L1649-94C1532-94 1424-67 1371-42C1344-29 1321-14 1301 4C1260 40 1256 49 1251 57L1290 74C1342 98 1422 167 1495 260C1532 307 1563 370 1589 451C1615 532 1628 620 1628 717ZM1131 427C1072 352 985 315 870 315C755 315 669 352 610 427C551 502 522 598 522 717C522 836 551 932 610 1007C669 1081 755 1118 870 1118C985 1118 1072 1081 1131 1007C1190 932 1219 836 1219 717C1219 598 1190 502 1131 427Z"  horiz-adv-x="1740" vert-adv-y="2048"  />

      
      <glyph glyph-name="uni52" unicode="&#x52;" d="M782 471L1081 0L1513 0L1161 541L1161 547L1186 557C1218 573 1270 617 1318 674C1366 731 1403 838 1403 961C1403 1124 1356 1244 1262 1320C1168 1396 1014 1434 799 1434L154 1434L154 0L543 0L543 471ZM543 795L543 1110L799 1110C928 1110 993 1058 993 953C993 848 928 795 799 795Z"  horiz-adv-x="1544" vert-adv-y="2048"  />

      
      <glyph glyph-name="uni53" unicode="&#x53;" d="M1382 1016C1382 1300 1163 1454 754 1454C552 1454 397 1415 288 1338C179 1260 125 1154 125 1020C125 930 148 854 193 793C238 731 294 687 362 662C429 636 503 614 582 596C661 578 734 565 802 557C869 549 926 534 971 513C1016 492 1038 463 1038 428C1038 379 1013 342 964 319C914 295 849 283 770 283C591 282 502 334 502 438L502 498L92 498L92 440C92 140 325-20 770-20C989-20 1156 20 1273 99C1390 178 1448 288 1448 430C1448 523 1426 601 1381 664C1336 727 1279 771 1212 797C1144 823 1070 845 991 863C912 880 838 892 771 899C704 906 648 919 603 940C558 961 535 989 535 1024C535 1100 613 1151 754 1151C901 1151 973 1097 973 1016L973 979L1382 979L1382 1016Z"  horiz-adv-x="1540" vert-adv-y="2048"  />

      
      <glyph glyph-name="uni54" unicode="&#x54;" d="M508 1106L508 0L897 0L897 1106L1374 1106L1374 1434L31 1434L31 1106Z"  horiz-adv-x="1404" vert-adv-y="2048"  />

      
      <glyph glyph-name="uni55" unicode="&#x55;" d="M1342 119C1469 212 1532 349 1532 530L1532 1434L1143 1434L1143 551C1143 468 1114 408 1056 371C998 334 925 315 838 315C751 315 678 334 620 371C561 408 532 468 532 551L532 1434L143 1434L143 530C143 349 207 212 334 119C461 26 629-20 838-20C1047-20 1215 26 1342 119Z"  horiz-adv-x="1675" vert-adv-y="2048"  />

      
      <glyph glyph-name="uni56" unicode="&#x56;" d="M1124 1434L801 379L764 379L440 1434L31 1434L516 0L1049 0L1534 1434Z"  horiz-adv-x="1564" vert-adv-y="2048"  />

      
      <glyph glyph-name="uni57" unicode="&#x57;" d="M1417 1434L879 1434L674 406L651 406L453 1434L51 1434L373 0L938 0L1139 1018L1157 1018L1358 0L1923 0L2245 1434L1843 1434L1645 406L1622 406Z"  horiz-adv-x="2295" vert-adv-y="2048"  />

      
      <glyph glyph-name="uni58" unicode="&#x58;" d="M481 756L0 0L442 0L719 471L743 471L1020 0L1462 0L981 756L1403 1434L963 1434L743 1028L719 1028L500 1434L59 1434Z"  horiz-adv-x="1462" vert-adv-y="2048"  />

      
      <glyph glyph-name="uni59" unicode="&#x59;" d="M711 825L422 1434L0 1434L504 483L504 0L946 0L946 483L1450 1434L1028 1434L739 825Z"  horiz-adv-x="1449" vert-adv-y="2048"  />

      
      <glyph glyph-name="uni5a" unicode="&#x5a;" d="M602 311L602 326L1323 1122L1323 1434L109 1434L109 1122L823 1122L823 1108L102 311L102 0L1333 0L1333 311Z"  horiz-adv-x="1435" vert-adv-y="2048"  />

      
      <glyph glyph-name="uni5b" unicode="&#x5b;" d="M510-233L510 1380L842 1380L842 1659L154 1659L154-512L842-512L842-233Z"  horiz-adv-x="882" vert-adv-y="2048"  />

      
      <glyph glyph-name="uni5c" unicode="&#x5c;" d="M1077-246L297 1434L0 1434L780-246Z"  horiz-adv-x="1077" vert-adv-y="2048"  />

      
      <glyph glyph-name="uni5d" unicode="&#x5d;" d="M729-512L729 1659L41 1659L41 1380L373 1380L373-233L41-233L41-512Z"  horiz-adv-x="882" vert-adv-y="2048"  />

      
      <glyph glyph-name="uni5e" unicode="&#x5e;" d="M397 1434L51 717L377 717L573 1149L600 1149L797 717L1122 717L776 1434Z"  horiz-adv-x="1173" vert-adv-y="2048"  />

      
      <glyph glyph-name="uni5f" unicode="&#x5f;" d="M-41-102L-41-356L1040-356L1040-102Z"  horiz-adv-x="999" vert-adv-y="2048"  />

      
      <glyph glyph-name="uni60" unicode="&#x60;" d="M61 1536L518 1208L803 1208L496 1536Z"  horiz-adv-x="864" vert-adv-y="2048"  />

      
      <glyph glyph-name="uni61" unicode="&#x61;" d="M92 293C92 189 131 111 210 59C289 6 388-20 508-20C625-20 724 3 775 32C855 76 887 128 883 133L899 133L905 119C916 96 943 63 980 33C1017 3 1088-20 1167-20C1237-20 1286-13 1313 0L1313 293L1276 287C1235 287 1219 310 1219 381L1219 672C1218 920 1042 1044 690 1044C519 1044 386 1014 290 953C193 892 145 803 145 684L510 684C510 752 569 799 686 799C803 799 862 757 862 672L862 530L836 549C818 562 783 575 730 588C677 600 616 606 547 606C413 606 304 581 219 530C134 479 92 400 92 293ZM854 309C854 253 788 225 656 225C523 225 457 253 457 309C457 365 523 393 656 393C788 393 854 365 854 309Z"  horiz-adv-x="1374" vert-adv-y="2048"  />

      
      <glyph glyph-name="uni62" unicode="&#x62;" d="M1197 904C1106 997 993 1044 856 1044C781 1044 713 1032 653 1008C593 983 555 963 540 948C524 933 512 920 504 911L489 911L489 1434L133 1434L133 0L489 0L489 176L506 176L516 156C529 128 570 88 620 49C670 10 757-20 856-20C993-20 1106 27 1197 120C1288 213 1333 344 1333 512C1333 680 1288 811 1197 904ZM905 353C862 312 803 291 729 291C654 291 595 312 553 353C510 394 489 447 489 512C489 648 581 733 729 733C803 733 862 713 905 672C948 631 969 577 969 512C969 447 948 394 905 353Z"  horiz-adv-x="1425" vert-adv-y="2048"  />

      
      <glyph glyph-name="uni63" unicode="&#x63;" d="M257 118C367 26 512-20 692-20C868-20 1010 24 1119 111C1228 198 1282 303 1282 426L915 426L901 389C893 364 871 340 834 316C797 291 749 279 692 279C621 279 565 300 522 343C479 385 457 441 457 512C457 583 479 639 522 682C565 724 621 745 692 745C763 745 823 720 854 694C869 681 882 666 892 650C912 617 912 606 915 598L1282 598C1282 721 1228 826 1119 913C1010 1000 868 1044 692 1044C512 1044 367 998 257 906C147 814 92 683 92 512C92 341 147 210 257 118Z"  horiz-adv-x="1363" vert-adv-y="2048"  />

      
      <glyph glyph-name="uni64" unicode="&#x64;" d="M228 120C319 27 432-20 569-20C668-20 758 15 806 49C830 66 852 85 872 108C911 152 915 165 920 176L936 176L936 0L1292 0L1292 1434L936 1434L936 911L922 911L909 926C893 942 855 973 803 999C751 1025 662 1044 569 1044C433 1044 320 997 229 904C138 811 92 680 92 512C92 344 137 213 228 120ZM522 672C565 713 623 733 697 733C844 733 936 648 936 512C936 447 915 394 873 353C830 312 771 291 696 291C623 291 565 312 522 353C479 394 457 447 457 512C457 577 479 631 522 672Z"  horiz-adv-x="1425" vert-adv-y="2048"  />

      
      <glyph glyph-name="uni65" unicode="&#x65;" d="M1290 512C1290 683 1235 814 1125 906C1015 998 871 1044 692 1044C511 1044 365 998 256 906C147 814 92 683 92 512C92 340 147 208 257 117C367 26 513-20 694-20C767-20 833-14 893-1C1013 24 1083 65 1142 118C1201 171 1226 213 1246 261C1265 309 1266 319 1266 330L885 330L870 303C861 287 840 270 808 252C776 234 738 225 694 225C539 225 468 311 465 442L1284 442ZM692 799C759 799 811 781 849 745C886 709 905 669 905 625L473 625C473 670 493 710 532 746C571 781 624 799 692 799Z"  horiz-adv-x="1382" vert-adv-y="2048"  />

      
      <glyph glyph-name="uni66" unicode="&#x66;" d="M858 993L569 993L569 1014C569 1061 590 1099 631 1128C672 1157 726 1171 793 1171C860 1171 916 1155 961 1124L961 1407L934 1417C917 1426 891 1434 854 1442C817 1450 778 1454 739 1454C388 1454 213 1307 213 1014L213 993L31 915L31 719L213 719L213 0L569 0L569 719L858 719Z"  horiz-adv-x="919" vert-adv-y="2048"  />

      
      <glyph glyph-name="uni67" unicode="&#x67;" d="M141 698C141 622 168 554 194 517C207 498 222 482 239 468C273 439 283 435 291 432L291 424L262 412C243 403 223 388 204 366C184 343 174 318 174 289C174 266 181 244 196 225C224 185 239 179 250 174L250 166L201 143C168 130 135 101 102 57C68 12 51-41 51-102C51-183 77-248 130-298C235-398 402-430 647-430C1047-430 1247-321 1247-103C1247 116 1047 225 647 225C500 225 446 242 446 289C446 336 499 352 647 352C806 352 930 381 1019 438C1108 495 1153 577 1153 684C1153 737 1143 781 1122 815L1309 815L1309 1044L647 1044C492 1044 369 1013 278 952C187 891 141 806 141 698ZM891-103C891-163 811-193 650-193C489-193 408-163 408-103C408-42 489-12 650-12C811-12 891-42 891-103ZM762 783C788 761 801 733 801 699C801 664 788 636 762 615C736 593 698 582 647 582C596 582 558 593 533 615C507 636 494 664 494 699C494 733 507 761 533 783C558 804 596 815 647 815C698 815 736 804 762 783Z"  horiz-adv-x="1318" vert-adv-y="2048"  />

      
      <glyph glyph-name="uni68" unicode="&#x68;" d="M1294 0L1294 606C1294 752 1257 862 1182 935C1107 1008 1006 1044 877 1044C768 1044 670 1010 620 975C595 957 572 937 553 915C514 870 513 857 508 846L489 846L489 1434L133 1434L133 0L489 0L489 504C489 643 567 733 715 733C856 733 938 649 938 504L938 0Z"  horiz-adv-x="1417" vert-adv-y="2048"  />

      
      <glyph glyph-name="uni69" unicode="&#x69;" d="M133 1024L133 0L489 0L489 1024ZM172 1188C206 1161 252 1147 311 1147C370 1147 416 1161 451 1188C485 1215 502 1253 502 1301C502 1348 485 1386 451 1413C416 1440 370 1454 311 1454C252 1454 206 1440 172 1413C138 1386 121 1348 121 1301C121 1253 138 1215 172 1188Z"  horiz-adv-x="622" vert-adv-y="2048"  />

      
      <glyph glyph-name="uni6a" unicode="&#x6a;" d="M162 1024L162 45C162-88 107-139 0-139C-38-140-72-132-102-117L-102-401L-80-410C-49-418 21-430 86-430C357-430 518-285 518 12L518 1024ZM201 1188C235 1161 281 1147 340 1147C399 1147 445 1161 479 1188C513 1215 530 1253 530 1301C530 1348 513 1386 479 1413C445 1440 399 1454 340 1454C281 1454 235 1440 201 1413C167 1386 150 1348 150 1301C150 1253 167 1215 201 1188Z"  horiz-adv-x="651" vert-adv-y="2048"  />

      
      <glyph glyph-name="uni6b" unicode="&#x6b;" d="M862 1024L489 551L489 1434L133 1434L133 0L489 0L489 510L901 0L1298 0L858 530L1260 1024Z"  horiz-adv-x="1298" vert-adv-y="2048"  />

      
      <glyph glyph-name="uni6c" unicode="&#x6c;" d="M133 1434L133 0L489 0L489 1434Z"  horiz-adv-x="622" vert-adv-y="2048"  />

      
      <glyph glyph-name="uni6d" unicode="&#x6d;" d="M1849 0L1849 606C1849 898 1717 1044 1452 1044C1359 1044 1278 1010 1237 975C1216 957 1198 937 1183 915C1151 870 1150 857 1147 846L1130 846L1122 866C1114 894 1084 936 1041 975C997 1014 912 1044 813 1044C720 1044 639 1010 598 975C577 957 559 937 544 915C512 870 509 857 506 846L489 846L489 1024L133 1024L133 0L489 0L489 524C489 663 543 733 651 733C759 733 813 663 813 524L813 0L1169 0L1169 537C1169 668 1224 733 1333 733C1440 733 1493 663 1493 524L1493 0Z"  horiz-adv-x="1972" vert-adv-y="2048"  />

      
      <glyph glyph-name="uni6e" unicode="&#x6e;" d="M1294 0L1294 606C1294 752 1257 862 1182 935C1107 1008 1006 1044 877 1044C768 1044 670 1010 620 975C595 957 572 937 553 915C514 870 513 857 508 846L489 846L489 1024L133 1024L133 0L489 0L489 504C489 643 567 733 715 733C856 733 938 649 938 504L938 0Z"  horiz-adv-x="1417" vert-adv-y="2048"  />

      
      <glyph glyph-name="uni6f" unicode="&#x6f;" d="M256 906C147 814 92 683 92 512C92 341 147 210 256 118C365 26 511-20 693-20C874-20 1020 26 1129 118C1238 210 1292 341 1292 512C1292 683 1238 814 1129 906C1020 998 874 1044 693 1044C511 1044 365 998 256 906ZM522 349C479 390 457 444 457 512C457 580 479 635 522 676C565 717 622 737 693 737C764 737 821 717 864 676C907 635 928 580 928 512C928 444 907 390 864 349C821 308 764 287 693 287C622 287 565 308 522 349Z"  horiz-adv-x="1384" vert-adv-y="2048"  />

      
      <glyph glyph-name="uni70" unicode="&#x70;" d="M1197 904C1106 997 993 1044 856 1044C757 1044 667 1010 620 976C596 959 574 939 554 917C514 872 511 859 506 848L489 848L489 1024L133 1024L133-410L489-410L489 113L504 113L516 98C532 82 571 52 623 26C675-1 763-20 856-20C993-20 1106 27 1197 120C1288 213 1333 344 1333 512C1333 680 1288 811 1197 904ZM905 353C862 312 803 291 729 291C581 291 489 376 489 512C489 577 510 631 553 672C595 713 654 733 729 733C803 733 862 713 905 672C948 631 969 577 969 512C969 447 948 394 905 353Z"  horiz-adv-x="1425" vert-adv-y="2048"  />

      
      <glyph glyph-name="uni71" unicode="&#x71;" d="M228 120C319 27 432-20 569-20C644-20 712-8 772 17C832 41 870 61 886 76C902 91 914 104 922 113L936 113L936-410L1292-410L1292 1024L936 1024L936 848L920 848L909 868C896 896 857 936 806 975C755 1014 668 1044 569 1044C433 1044 320 997 229 904C138 811 92 680 92 512C92 344 137 213 228 120ZM521 672C564 713 622 733 696 733C771 733 830 713 873 672C915 631 936 577 936 512C936 376 844 291 697 291C623 291 565 312 522 353C479 394 457 447 457 512C457 577 478 631 521 672Z"  horiz-adv-x="1425" vert-adv-y="2048"  />

      
      <glyph glyph-name="uni72" unicode="&#x72;" d="M862 1044C761 1044 667 1010 620 975C596 957 574 937 555 915C516 870 513 857 508 846L489 846L489 1024L133 1024L133 0L489 0L489 430C489 581 580 680 760 680C845 680 908 668 950 643L950 1034L862 1044Z"  horiz-adv-x="1032" vert-adv-y="2048"  />

      
      <glyph glyph-name="uni73" unicode="&#x73;" d="M1133 702C1133 930 959 1044 610 1044C279 1044 92 932 92 729C92 643 117 576 167 527C217 478 278 446 350 432C421 417 493 407 565 402C636 396 697 387 747 374C796 361 821 338 821 307C822 250 757 221 627 221C490 221 436 252 436 328L436 360L72 360L72 328C72 79 262-20 627-20C1000-21 1186 90 1186 313C1186 386 1168 446 1132 495C1095 543 1050 576 996 594C942 612 884 626 821 637C758 648 700 654 646 656C538 660 457 682 457 729C456 778 507 803 608 803C685 803 731 792 749 769C767 746 768 733 768 702L1133 702Z"  horiz-adv-x="1257" vert-adv-y="2048"  />

      
      <glyph glyph-name="uni74" unicode="&#x74;" d="M190 399C190 107 347-20 678-20C758-21 821-9 868 14L868 301L852 295C831 284 780 270 733 270C613 270 547 315 547 446L547 750L838 750L838 1024L547 1024L547 1229L360 1229L51 934L51 750L190 750L190 399Z"  horiz-adv-x="960" vert-adv-y="2048"  />

      
      <glyph glyph-name="uni75" unicode="&#x75;" d="M133 1024L133 418C133 272 171 163 246 90C321 17 422-20 551-20C660-20 757 14 808 50C833 67 856 87 875 110C913 154 915 167 920 178L938 178L938 0L1294 0L1294 1024L938 1024L938 520C938 381 861 291 713 291C570 291 489 375 489 520L489 1024Z"  horiz-adv-x="1427" vert-adv-y="2048"  />

      
      <glyph glyph-name="uni76" unicode="&#x76;" d="M870 1024L637 291L618 291L385 1024L10 1024L369 0L887 0L1245 1024Z"  horiz-adv-x="1255" vert-adv-y="2048"  />

      
      <glyph glyph-name="uni77" unicode="&#x77;" d="M952 678L1128 0L1604 0L1862 1024L1501 1024L1356 311L1341 311L1159 1024L733 1024L551 311L537 311L391 1024L31 1024L289 0L764 0L940 678Z"  horiz-adv-x="1892" vert-adv-y="2048"  />

      
      <glyph glyph-name="uni78" unicode="&#x78;" d="M815 0L1210 0L850 537L1161 1024L776 1024L604 707L596 707L424 1024L39 1024L350 537L-10 0L385 0L596 346L604 346Z"  horiz-adv-x="1200" vert-adv-y="2048"  />

      
      <glyph glyph-name="uni79" unicode="&#x79;" d="M-20 1024L469 31L461 10C426-81 358-127 258-127C210-127 172-121 143-109L143-406L168-412C201-420 267-430 319-430C436-430 532-393 607-320C682-246 750-136 811 10L1239 1024L862 1024L668 522L641 317L612 317L586 522L354 1024Z"  horiz-adv-x="1218" vert-adv-y="2048"  />

      
      <glyph glyph-name="uni7a" unicode="&#x7a;" d="M639 733L639 727L92 291L92 0L1145 0L1145 291L578 291L578 297L1124 733L1124 1024L117 1024L117 733Z"  horiz-adv-x="1236" vert-adv-y="2048"  />

      
      <glyph glyph-name="uni7b" unicode="&#x7b;" d="M756-254C695-254 653-238 632-206C611-174 600-127 600-66L600 193C600 316 566 418 531 467C513 492 493 512 470 529C425 561 412 560 401 563L401 580L422 586C449 594 490 627 530 676C569 725 600 827 600 950L600 1208C600 1269 611 1316 632 1349C653 1381 695 1397 756 1397L797 1397L797 1679L756 1679C578 1679 450 1641 372 1565C293 1488 254 1369 254 1208L254 911C254 788 189 717 82 717L82 426C189 426 254 354 254 231L254-66C254-227 293-345 372-422C451-499 579-537 756-537L797-537L797-254L756-254Z"  horiz-adv-x="837" vert-adv-y="2048"  />

      
      <glyph glyph-name="uni7c" unicode="&#x7c;" d="M635-532L635 1577L307 1577L307-532Z"  horiz-adv-x="942" vert-adv-y="2048"  />

      
      <glyph glyph-name="uni7d" unicode="&#x7d;" d="M41-537L82-537C259-537 387-499 466-423C545-346 584-227 584-66L584 231C584 355 649 426 756 426L756 717C649 717 584 788 584 911L584 1208C584 1369 545 1488 466 1565C387 1641 259 1679 82 1679L41 1679L41 1397L82 1397C143 1397 185 1381 206 1349C227 1316 238 1269 238 1208L238 950C238 827 272 725 308 676C325 651 345 631 368 615C412 582 425 583 436 580L436 563L416 557C388 549 346 516 308 467C270 418 238 316 238 193L238-66C238-127 227-174 206-206C185-238 143-254 82-254L41-254Z"  horiz-adv-x="837" vert-adv-y="2048"  />

      
      <glyph glyph-name="uni7e" unicode="&#x7e;" d="M381 297C436 297 487 306 534 325C581 343 617 363 644 384C697 427 759 471 803 471C846 471 868 446 868 395C868 366 863 341 854 319L1141 319L1147 336C1155 360 1165 417 1165 469C1165 568 1124 642 1061 679C998 716 929 731 856 731C785 731 723 716 668 687C613 658 568 629 531 600C494 571 461 557 434 557C391 557 369 582 369 633C369 663 374 688 383 709L96 709L90 692C82 668 72 614 72 559C72 460 113 386 176 350C239 313 308 297 381 297Z"  horiz-adv-x="1236" vert-adv-y="2048"  />

      
      <glyph glyph-name="unia1" unicode="&#xa1;" d="M143-410L520-410L520-133L469 553L195 553L143-133ZM188 726C224 693 272 676 332 676C392 676 440 693 476 726C512 759 530 804 530 860C530 916 512 961 476 994C440 1027 392 1044 332 1044C272 1044 224 1027 188 994C151 961 133 916 133 860C133 804 151 759 188 726Z"  horiz-adv-x="663" vert-adv-y="2048"  />

      
      <glyph glyph-name="unia2" unicode="&#xa2;" d="M138 282C169 214 203 163 242 130C280 97 324 68 373 45C422 22 456 8 475 4C494 0 510-3 522-4L522-207L846-207L846-6C980 17 1086 69 1165 150C1243 230 1282 322 1282 426L915 426L901 389C893 364 871 340 834 316C797 291 749 279 692 279C621 279 565 300 522 343C479 385 457 441 457 512C457 583 479 639 522 682C565 724 621 745 692 745C763 745 823 720 854 694C869 681 882 666 892 650C912 617 912 606 915 598L1282 598C1282 701 1243 792 1165 873C1086 953 980 1005 846 1030L846 1231L522 1231L522 1028L479 1020C419 1009 328 963 244 894C201 859 165 809 136 742C107 675 92 598 92 512C92 426 107 349 138 282Z"  horiz-adv-x="1363" vert-adv-y="2048"  />

      
      <glyph glyph-name="unia3" unicode="&#xa3;" d="M1249 983L1249 1018C1249 1149 1210 1254 1131 1334C1052 1414 925 1454 750 1454C575 1454 448 1414 369 1334C290 1253 250 1145 250 1008L250 774L72 774L72 516L250 516L250 299L72 299L72 0L1278 0L1278 299L639 299L639 516L1016 516L1016 774L639 774L639 1018C639 1104 676 1147 750 1147C823 1147 860 1104 860 1018L860 983Z"  horiz-adv-x="1339" vert-adv-y="2048"  />

      
      <glyph glyph-name="unia4" unicode="&#xa4;" d="M254 553L254 440L72 440L72 195L254 195L254 0L643 0L643 195L1141 195L1141 440L643 440L643 553L819 553C1040 553 1202 586 1305 652C1407 717 1458 826 1458 979C1458 1140 1407 1257 1305 1328C1202 1399 1040 1434 819 1434L254 1434L254 799L72 799L72 553ZM993 840C955 813 897 799 819 799L643 799L643 1143L819 1143C897 1143 955 1129 993 1102C1030 1075 1049 1031 1049 971C1049 911 1030 867 993 840Z"  horiz-adv-x="1560" vert-adv-y="2048"  />

      
      <glyph glyph-name="unia5" unicode="&#xa5;" d="M1321 250L1321 483L977 483L1051 623L1321 623L1321 856L1174 856L1481 1434L1059 1434L770 825L741 825L453 1434L31 1434L338 856L190 856L190 623L461 623L535 483L190 483L190 250L545 250L545 0L967 0L967 250Z"  horiz-adv-x="1511" vert-adv-y="2048"  />

      
      <glyph glyph-name="unia6" unicode="&#xa6;" d="M307 1577L307 672L635 672L635 1577ZM635-532L635 385L307 385L307-532Z"  horiz-adv-x="942" vert-adv-y="2048"  />

      
      <glyph glyph-name="unia7" unicode="&#xa7;" d="M715 188C868 188 944 151 944 78C944 41 923 13 880-8C837-29 782-39 717-39C567-39 492 2 492 84L492 117L123 117L123 84C123-184 326-301 717-301C1108-301 1313-178 1313 49C1313 129 1274 201 1233 235C1212 252 1189 267 1163 281C1111 308 1096 308 1083 311L1083 326L1110 332C1143 343 1192 373 1240 413C1288 452 1327 526 1327 614C1327 733 1280 822 1187 880C1094 938 936 967 715 967C578 967 510 994 510 1075C510 1148 581 1192 696 1192C819 1192 883 1143 883 1067L883 1042L1251 1042L1251 1067C1251 1312 1064 1454 696 1454C511 1454 372 1421 280 1355C187 1289 141 1205 141 1102C141 1022 177 955 213 920C231 902 252 887 275 874C321 848 335 845 346 842L346 827L319 819C287 811 237 782 190 742C142 701 102 627 102 539C102 420 149 331 243 274C336 217 494 188 715 188ZM715 451C552 451 471 493 471 578C471 663 552 705 715 705C877 705 958 663 958 578C958 493 877 451 715 451Z"  horiz-adv-x="1429" vert-adv-y="2048"  />

      
      <glyph glyph-name="unia8" unicode="&#xa8;" d="M221 1466C114 1466 61 1421 61 1331C61 1241 114 1196 221 1196C328 1196 381 1241 381 1331C381 1421 328 1466 221 1466ZM672 1466C565 1466 512 1421 512 1331C512 1241 565 1196 672 1196C778 1196 831 1241 831 1331C831 1421 778 1466 672 1466Z"  horiz-adv-x="892" vert-adv-y="2048"  />

      
      <glyph glyph-name="unia9" unicode="&#xa9;" d="M528 719C528 608 563 522 632 461C701 400 794 369 913 369C1025 369 1116 396 1186 450C1255 504 1290 575 1290 662L1044 662L1036 643C1025 616 978 584 913 584C824 584 774 640 774 719C774 792 829 852 913 852C948 852 976 845 998 831C1041 802 1041 785 1044 774L1290 774C1290 861 1255 932 1186 986C1116 1040 1025 1067 913 1067C796 1067 702 1036 633 975C563 914 528 828 528 719ZM1488 179C1636 311 1710 490 1710 717C1710 944 1636 1123 1488 1256C1340 1388 1148 1454 912 1454C675 1454 483 1388 335 1256C187 1123 113 944 113 717C113 490 187 311 335 179C483 46 675-20 912-20C1148-20 1340 46 1488 179ZM508 342C408 439 358 564 358 717C358 870 408 995 508 1092C607 1189 742 1237 911 1237C1080 1237 1215 1189 1315 1092C1414 995 1464 870 1464 717C1464 564 1414 439 1315 342C1215 245 1080 197 911 197C742 197 607 245 508 342Z"  horiz-adv-x="1822" vert-adv-y="2048"  />

      
      <glyph glyph-name="uniaa" unicode="&#xaa;" d="M61 1114C61 961 188 883 393 883C464 883 529 900 562 920C578 929 592 940 605 953C629 977 630 984 633 989L645 989L649 979C654 963 673 941 701 921C728 900 783 883 846 883C904 883 941 887 958 895L958 1122L934 1118C898 1118 889 1130 889 1182L889 1386C889 1568 761 1659 504 1659C241 1659 102 1554 102 1395L397 1395C398 1442 433 1466 504 1466C569 1466 602 1439 602 1386L602 1286L584 1300C559 1320 484 1341 391 1341C294 1341 215 1323 154 1286C92 1249 61 1192 61 1114ZM352 1129C352 1164 394 1182 477 1182C560 1182 602 1164 602 1129C602 1093 560 1075 477 1075C394 1075 352 1093 352 1129Z"  horiz-adv-x="999" vert-adv-y="2048"  />

      
      <glyph glyph-name="uniab" unicode="&#xab;" d="M664 129L383 504L383 512L664 887L330 887L61 508L330 129ZM1176 129L895 504L895 512L1176 887L842 887L573 508L842 129Z"  horiz-adv-x="1247" vert-adv-y="2048"  />

      
      <glyph glyph-name="uniac" unicode="&#xac;" d="M889 260L889 688L61 688L61 430L635 430L635 260Z"  horiz-adv-x="980" vert-adv-y="2048"  />

      
      <glyph glyph-name="uniad" unicode="&#xad;" d="M72 543L72 250L590 465L590 758Z"  horiz-adv-x="661" vert-adv-y="2048"  />

      
      <glyph glyph-name="uniae" unicode="&#xae;" d="M514 971L580 856L733 856L653 989L653 993L668 1001C687 1013 711 1049 711 1098C710 1179 649 1219 526 1219L356 1219L356 856L504 856L504 971ZM504 1067L504 1122L532 1122C551 1122 561 1113 561 1096C561 1078 551 1068 532 1067ZM855 724C939 800 981 903 981 1033C981 1162 939 1265 855 1341C771 1416 662 1454 527 1454C392 1454 282 1416 198 1341C114 1265 72 1162 72 1033C72 903 114 800 198 724C282 648 392 610 527 610C662 610 771 648 855 724ZM306 823C248 875 219 945 219 1032C219 1119 248 1189 306 1241C364 1293 437 1319 526 1319C615 1319 688 1293 747 1241C805 1189 834 1119 834 1032C834 945 805 875 747 823C688 771 615 745 526 745C437 745 364 771 306 823Z"  horiz-adv-x="1052" vert-adv-y="2048"  />

      
      <glyph glyph-name="uniaf" unicode="&#xaf;" d="M745 1235L745 1444L61 1444L61 1235Z"  horiz-adv-x="806" vert-adv-y="2048"  />

      
      <glyph glyph-name="unib0" unicode="&#xb0;" d="M176 824C245 763 337 733 453 733C569 733 662 763 731 824C800 885 834 975 834 1094C834 1213 800 1302 731 1363C662 1424 569 1454 453 1454C337 1454 245 1424 176 1363C107 1302 72 1213 72 1094C72 975 107 885 176 824ZM453 950C379 950 342 998 342 1094C342 1189 379 1237 453 1237C526 1237 563 1189 563 1094C563 998 526 950 453 950Z"  horiz-adv-x="905" vert-adv-y="2048"  />

      
      <glyph glyph-name="unib1" unicode="&#xb1;" d="M979 313L664 313L664 516L979 516L979 754L664 754L664 1055L418 1055L418 754L102 754L102 516L418 516L418 313L102 313L102 76L979 76Z"  horiz-adv-x="1081" vert-adv-y="2048"  />

      
      <glyph glyph-name="unib2" unicode="&#xb2;" d="M788 860L788 1065L350 1065C350 1086 419 1102 505 1126C548 1137 591 1152 634 1171C720 1207 788 1293 788 1413C788 1483 758 1542 697 1589C636 1636 551 1659 440 1659C211 1659 92 1559 92 1376L92 1360L358 1360L358 1376C358 1428 385 1454 440 1454C495 1454 522 1434 522 1393C522 1336 452 1305 364 1285C319 1275 275 1263 231 1248C142 1218 72 1144 72 1032L72 860Z"  horiz-adv-x="860" vert-adv-y="2048"  />

      
      <glyph glyph-name="unib3" unicode="&#xb3;" d="M360 1442L455 1460L455 1442L360 1415L170 1327L170 1188L420 1188C483 1188 514 1163 514 1114C514 1075 483 1044 420 1044C359 1044 328 1066 328 1110L328 1122L61 1122L61 1110C62 930 181 840 420 840C660 840 780 930 780 1110C780 1177 759 1232 718 1276C676 1320 620 1343 549 1346L455 1327L455 1346L549 1372L737 1440L737 1638L94 1638L94 1442Z"  horiz-adv-x="862" vert-adv-y="2048"  />

      
      <glyph glyph-name="unib4" unicode="&#xb4;" d="M346 1208L803 1536L369 1536L61 1208Z"  horiz-adv-x="864" vert-adv-y="2048"  />

      
      <glyph glyph-name="unib5" unicode="&#xb5;" d="M489-410L489 47L498 47L516 29C544 6 614-20 690-20C781-20 857 10 893 43C911 60 926 78 939 99C964 139 966 151 969 162L985 162L991 143C999 119 1023 79 1059 43C1094 7 1164-20 1243-20C1313-20 1362-13 1389 0L1389 293L1352 287C1311 287 1294 310 1294 381L1294 1024L938 1024L938 520C938 381 861 291 713 291C570 291 489 375 489 520L489 1024L133 1024L133-410Z"  horiz-adv-x="1449" vert-adv-y="2048"  />

      
      <glyph glyph-name="unib6" unicode="&#xb6;" d="M143 795C210 733 304 702 424 702L424-532L670-532L670 1208L795 1208L795-532L1040-532L1040 1208L1180 1208L1180 1434L424 1434C304 1434 210 1404 143 1343C75 1282 41 1190 41 1069C41 948 75 856 143 795Z"  horiz-adv-x="1220" vert-adv-y="2048"  />

      
      <glyph glyph-name="unib7" unicode="&#xb7;" d="M109 402C146 367 195 350 256 350C317 350 367 367 404 402C441 436 459 482 459 541C459 600 441 646 404 680C367 714 317 731 256 731C195 731 146 714 109 680C72 646 53 600 53 541C53 482 72 436 109 402Z"  horiz-adv-x="512" vert-adv-y="2048"  />

      
      <glyph glyph-name="unib8" unicode="&#xb8;" d="M143-190L279-190C321-191 342-208 342-242C342-277 321-295 279-295C239-295 219-277 219-242L61-242C62-358 134-416 279-416C415-416 500-359 500-242C500-130 425-70 297-70L297-66L424 74L289 74L143-88Z"  horiz-adv-x="561" vert-adv-y="2048"  />

      
      <glyph glyph-name="unib9" unicode="&#xb9;" d="M227 1348L233 1348L233 860L496 860L496 1638L238 1638L20 1442L150 1278Z"  horiz-adv-x="638" vert-adv-y="2048"  />

      
      <glyph glyph-name="uniba" unicode="&#xba;" d="M191 978C270 911 375 877 508 877C641 877 747 911 826 978C905 1045 944 1142 944 1268C944 1393 905 1490 826 1558C747 1625 641 1659 508 1659C375 1659 270 1625 191 1558C112 1490 72 1393 72 1268C72 1142 112 1045 191 978ZM614 1156C588 1128 553 1114 508 1114C463 1114 427 1128 401 1156C375 1184 362 1221 362 1268C362 1314 375 1351 401 1379C427 1407 463 1421 508 1421C553 1421 588 1407 614 1379C640 1351 653 1314 653 1268C653 1221 640 1184 614 1156Z"  horiz-adv-x="1015" vert-adv-y="2048"  />

      
      <glyph glyph-name="unibb" unicode="&#xbb;" d="M918 887L584 887L864 512L864 504L584 129L918 129L1186 508ZM406 887L72 887L352 512L352 504L72 129L406 129L674 508Z"  horiz-adv-x="1247" vert-adv-y="2048"  />

      
      <glyph glyph-name="unibc" unicode="&#xbc;" d="M477 0L1460 1434L1155 1434L172 0ZM238 1143L244 1143L244 655L506 655L506 1434L248 1434L31 1237L160 1073ZM1546 0L1546 141L1645 141L1645 346L1546 346L1546 778L1257 778L887 346L887 141L1284 141L1284 0ZM1300 580L1321 580L1288 500L1288 342L1112 342L1112 346L1245 500Z"  horiz-adv-x="1726" vert-adv-y="2048"  />

      
      <glyph glyph-name="unibd" unicode="&#xbd;" d="M477 0L1460 1434L1155 1434L172 0ZM238 1143L244 1143L244 655L506 655L506 1434L248 1434L31 1237L160 1073ZM1733 0L1733 205L1294 205C1294 226 1363 242 1449 266C1492 277 1535 292 1578 311C1664 347 1733 433 1733 553C1733 622 1703 681 1642 728C1581 775 1495 799 1384 799C1155 799 1036 699 1036 516L1036 500L1303 500L1303 516C1303 568 1330 594 1385 594C1439 593 1466 573 1466 532C1466 475 1396 445 1308 425C1263 415 1219 403 1175 388C1086 358 1016 284 1016 172L1016 0Z"  horiz-adv-x="1845" vert-adv-y="2048"  />

      
      <glyph glyph-name="unibe" unicode="&#xbe;" d="M688 0L1671 1434L1366 1434L383 0ZM1757 0L1757 141L1855 141L1855 346L1757 346L1757 778L1468 778L1098 346L1098 141L1495 141L1495 0ZM1511 580L1532 580L1499 500L1499 342L1323 342L1323 346L1456 500ZM360 1237L455 1255L455 1237L360 1210L170 1122L170 983L420 983C483 983 514 958 514 909C514 872 483 840 420 840C359 839 328 861 328 905L328 918L61 918L61 905C62 725 181 635 420 635C660 635 780 725 780 905C780 972 759 1028 718 1072C676 1115 620 1138 549 1141L455 1122L455 1141L549 1167L737 1235L737 1434L94 1434L94 1237Z"  horiz-adv-x="1937" vert-adv-y="2048"  />

      
      <glyph glyph-name="unibf" unicode="&#xbf;" d="M849 994C813 1027 765 1044 705 1044C644 1044 596 1027 560 994C524 961 506 916 506 860C506 804 524 759 560 726C596 693 644 676 705 676C765 676 813 693 849 726C885 759 903 804 903 860C903 916 885 961 849 994ZM905 51L905-4C905-77 817-127 672-127C516-127 438-89 438-12C438 26 454 56 485 79C516 102 554 120 599 134C644 147 688 162 733 179C821 211 893 290 893 410L893 553L516 553L516 500C516 460 500 429 469 408C438 386 400 368 356 355C311 341 267 323 223 302C178 281 140 244 109 192C77 139 61 71 61-12C61-280 263-430 672-430C870-430 1021-393 1126-318C1230-243 1282-138 1282-4L1282 51Z"  horiz-adv-x="1323" vert-adv-y="2048"  />

      
      <glyph glyph-name="unic0" unicode="&#xc0;" d="M563 1434L-10 0L397 0L485 219L1137 219L1225 0L1632 0L1059 1434ZM594 514L799 1055L823 1055L1028 514ZM209 1946L666 1618L950 1618L643 1946Z"  horiz-adv-x="1622" vert-adv-y="2048"  />

      
      <glyph glyph-name="unic1" unicode="&#xc1;" d="M563 1434L-10 0L397 0L485 219L1137 219L1225 0L1632 0L1059 1434ZM594 514L799 1055L823 1055L1028 514ZM938 1618L1395 1946L961 1946L653 1618Z"  horiz-adv-x="1622" vert-adv-y="2048"  />

      
      <glyph glyph-name="unic2" unicode="&#xc2;" d="M563 1434L-10 0L397 0L485 219L1137 219L1225 0L1632 0L1059 1434ZM594 514L799 1055L823 1055L1028 514ZM805 1823L819 1823L961 1618L1270 1618L1012 1946L612 1946L354 1618L664 1618Z"  horiz-adv-x="1622" vert-adv-y="2048"  />

      
      <glyph glyph-name="unic3" unicode="&#xc3;" d="M563 1434L-10 0L397 0L485 219L1137 219L1225 0L1632 0L1059 1434ZM594 514L799 1055L823 1055L1028 514ZM627 1556C691 1556 753 1572 813 1604C873 1635 915 1651 940 1651C973 1651 989 1636 989 1606C989 1592 987 1580 983 1571L1190 1571L1192 1583C1197 1599 1202 1636 1202 1669C1202 1725 1182 1767 1143 1795C1103 1823 1054 1837 995 1837C930 1837 868 1821 809 1790C750 1759 708 1743 682 1743C649 1743 633 1758 633 1788C633 1803 635 1815 639 1823L432 1823L430 1810C425 1794 420 1757 420 1724C420 1668 440 1626 480 1598C519 1570 568 1556 627 1556Z"  horiz-adv-x="1622" vert-adv-y="2048"  />

      
      <glyph glyph-name="unic4" unicode="&#xc4;" d="M563 1434L-10 0L397 0L485 219L1137 219L1225 0L1632 0L1059 1434ZM594 514L799 1055L823 1055L1028 514ZM584 1888C477 1888 424 1843 424 1753C424 1663 477 1618 584 1618C690 1618 743 1663 743 1753C743 1843 690 1888 584 1888ZM1034 1888C927 1888 874 1843 874 1753C874 1663 927 1618 1034 1618C1141 1618 1194 1663 1194 1753C1194 1843 1141 1888 1034 1888Z"  horiz-adv-x="1622" vert-adv-y="2048"  />

      
      <glyph glyph-name="unic5" unicode="&#xc5;" d="M563 1434L-10 0L397 0L485 219L1137 219L1225 0L1632 0L1059 1434ZM594 514L799 1055L823 1055L1028 514ZM627 1595C672 1556 733 1536 811 1536C889 1536 951 1556 996 1595C1041 1634 1063 1686 1063 1753C1063 1820 1041 1873 996 1912C951 1951 889 1970 811 1970C733 1970 672 1951 627 1912C582 1873 559 1820 559 1753C559 1686 582 1634 627 1595ZM811 1696C772 1696 752 1715 752 1753C752 1791 772 1810 811 1810C850 1810 870 1791 870 1753C870 1715 850 1696 811 1696Z"  horiz-adv-x="1622" vert-adv-y="2048"  />

      
      <glyph glyph-name="unic6" unicode="&#xc6;" d="M1966 0L1966 311L1311 311L1311 584L1829 584L1829 879L1311 879L1311 1122L1966 1122L1966 1434L561 1434L-10 0L393 0L481 219L922 219L922 0ZM813 1096L922 1096L922 514L590 514Z"  horiz-adv-x="2078" vert-adv-y="2048"  />

      
      <glyph glyph-name="unic7" unicode="&#xc7;" d="M743-190L879-190C921-191 942-208 942-242C942-277 921-295 879-295C839-295 819-277 819-242L662-242C662-358 734-416 879-416C1015-416 1100-359 1100-242C1100-130 1025-70 897-70L897-66L940-16C1138-3 1297 58 1416 167C1535 275 1595 410 1595 573L1186 573L1182 547C1177 511 1152 457 1109 407C1066 357 977 315 862 315C751 315 667 353 609 428C551 503 522 600 522 717C522 834 551 931 609 1006C667 1081 751 1118 862 1118C977 1118 1067 1074 1108 1029C1129 1006 1146 980 1160 950C1187 890 1186 873 1186 860L1595 860C1595 1033 1528 1176 1393 1287C1258 1398 1081 1454 862 1454C634 1454 452 1389 317 1258C181 1127 113 946 113 717C113 497 176 322 301 193C426 63 594-7 805-18L743-88Z"  horiz-adv-x="1697" vert-adv-y="2048"  />

      
      <glyph glyph-name="unic8" unicode="&#xc8;" d="M1378 0L1378 311L543 311L543 586L1239 586L1239 881L543 881L543 1122L1378 1122L1378 1434L154 1434L154 0ZM211 1946L668 1618L952 1618L645 1946Z"  horiz-adv-x="1490" vert-adv-y="2048"  />

      
      <glyph glyph-name="unic9" unicode="&#xc9;" d="M1378 0L1378 311L543 311L543 586L1239 586L1239 881L543 881L543 1122L1378 1122L1378 1434L154 1434L154 0ZM897 1618L1354 1946L920 1946L612 1618Z"  horiz-adv-x="1490" vert-adv-y="2048"  />

      
      <glyph glyph-name="unica" unicode="&#xca;" d="M1378 0L1378 311L543 311L543 586L1239 586L1239 881L543 881L543 1122L1378 1122L1378 1434L154 1434L154 0ZM758 1823L772 1823L913 1618L1223 1618L965 1946L565 1946L307 1618L616 1618Z"  horiz-adv-x="1490" vert-adv-y="2048"  />

      
      <glyph glyph-name="unicb" unicode="&#xcb;" d="M1378 0L1378 311L543 311L543 586L1239 586L1239 881L543 881L543 1122L1378 1122L1378 1434L154 1434L154 0ZM547 1888C440 1888 387 1843 387 1753C387 1663 440 1618 547 1618C654 1618 707 1663 707 1753C707 1843 654 1888 547 1888ZM998 1888C891 1888 838 1843 838 1753C838 1663 891 1618 998 1618C1104 1618 1157 1663 1157 1753C1157 1843 1104 1888 998 1888Z"  horiz-adv-x="1490" vert-adv-y="2048"  />

      
      <glyph glyph-name="unicc" unicode="&#xcc;" d="M113 1434L113 1122L453 1122L453 311L113 311L113 0L1182 0L1182 311L842 311L842 1122L1182 1122L1182 1434ZM72 1946L528 1618L813 1618L506 1946Z"  horiz-adv-x="1294" vert-adv-y="2048"  />

      
      <glyph glyph-name="unicd" unicode="&#xcd;" d="M113 1434L113 1122L453 1122L453 311L113 311L113 0L1182 0L1182 311L842 311L842 1122L1182 1122L1182 1434ZM766 1618L1223 1946L788 1946L481 1618Z"  horiz-adv-x="1294" vert-adv-y="2048"  />

      
      <glyph glyph-name="unice" unicode="&#xce;" d="M113 1434L113 1122L453 1122L453 311L113 311L113 0L1182 0L1182 311L842 311L842 1122L1182 1122L1182 1434ZM641 1823L655 1823L797 1618L1106 1618L848 1946L449 1946L190 1618L500 1618Z"  horiz-adv-x="1294" vert-adv-y="2048"  />

      
      <glyph glyph-name="unicf" unicode="&#xcf;" d="M113 1434L113 1122L453 1122L453 311L113 311L113 0L1182 0L1182 311L842 311L842 1122L1182 1122L1182 1434ZM422 1888C315 1888 262 1843 262 1753C262 1663 315 1618 422 1618C529 1618 582 1663 582 1753C582 1843 529 1888 422 1888ZM873 1888C766 1888 713 1843 713 1753C713 1663 766 1618 873 1618C979 1618 1032 1663 1032 1753C1032 1843 979 1888 873 1888Z"  horiz-adv-x="1294" vert-adv-y="2048"  />

      
      <glyph glyph-name="unid0" unicode="&#xd0;" d="M238 1434L238 872L31 872L31 578L238 578L238 0L842 0C1082 0 1268 62 1400 186C1531 309 1597 486 1597 717C1597 948 1531 1125 1400 1249C1268 1372 1082 1434 842 1434ZM842 1106C958 1106 1045 1071 1102 1000C1159 929 1188 834 1188 717C1188 600 1159 506 1102 435C1045 364 958 328 842 328L627 328L627 578L874 578L874 872L627 872L627 1106Z"  horiz-adv-x="1710" vert-adv-y="2048"  />

      
      <glyph glyph-name="unid1" unicode="&#xd1;" d="M1591 0L1591 1434L1202 1434L1202 528L1270 336L1231 336L1147 528L782 1434L154 1434L154 0L543 0L543 905L475 1098L514 1098L598 905L963 0ZM715 1577C779 1577 841 1593 901 1624C961 1655 1003 1671 1028 1671C1061 1671 1077 1656 1077 1626C1077 1612 1075 1600 1071 1591L1278 1591L1282 1604C1285 1620 1290 1657 1290 1690C1290 1746 1270 1788 1231 1816C1191 1844 1142 1858 1083 1858C1018 1858 956 1842 897 1811C838 1779 796 1763 770 1763C737 1763 721 1778 721 1808C721 1823 723 1835 727 1843L520 1843L516 1831C513 1815 508 1778 508 1745C508 1689 528 1647 568 1619C607 1591 656 1577 715 1577Z"  horiz-adv-x="1744" vert-adv-y="2048"  />

      
      <glyph glyph-name="unid2" unicode="&#xd2;" d="M1425 1258C1289 1389 1104 1454 871 1454C637 1454 452 1389 317 1258C181 1127 113 946 113 717C113 488 181 308 317 177C452 46 637-20 871-20C1104-20 1289 46 1425 177C1560 308 1628 488 1628 717C1628 946 1560 1127 1425 1258ZM1131 427C1072 352 985 315 870 315C755 315 669 352 610 427C551 502 522 598 522 717C522 836 551 932 610 1007C669 1081 755 1118 870 1118C985 1118 1072 1081 1131 1007C1190 932 1219 836 1219 717C1219 598 1190 502 1131 427ZM287 1946L743 1618L1028 1618L721 1946Z"  horiz-adv-x="1740" vert-adv-y="2048"  />

      
      <glyph glyph-name="unid3" unicode="&#xd3;" d="M1425 1258C1289 1389 1104 1454 871 1454C637 1454 452 1389 317 1258C181 1127 113 946 113 717C113 488 181 308 317 177C452 46 637-20 871-20C1104-20 1289 46 1425 177C1560 308 1628 488 1628 717C1628 946 1560 1127 1425 1258ZM1131 427C1072 352 985 315 870 315C755 315 669 352 610 427C551 502 522 598 522 717C522 836 551 932 610 1007C669 1081 755 1118 870 1118C985 1118 1072 1081 1131 1007C1190 932 1219 836 1219 717C1219 598 1190 502 1131 427ZM991 1618L1448 1946L1014 1946L707 1618Z"  horiz-adv-x="1740" vert-adv-y="2048"  />

      
      <glyph glyph-name="unid4" unicode="&#xd4;" d="M1425 1258C1289 1389 1104 1454 871 1454C637 1454 452 1389 317 1258C181 1127 113 946 113 717C113 488 181 308 317 177C452 46 637-20 871-20C1104-20 1289 46 1425 177C1560 308 1628 488 1628 717C1628 946 1560 1127 1425 1258ZM1131 427C1072 352 985 315 870 315C755 315 669 352 610 427C551 502 522 598 522 717C522 836 551 932 610 1007C669 1081 755 1118 870 1118C985 1118 1072 1081 1131 1007C1190 932 1219 836 1219 717C1219 598 1190 502 1131 427ZM862 1823L877 1823L1018 1618L1327 1618L1069 1946L670 1946L412 1618L721 1618Z"  horiz-adv-x="1740" vert-adv-y="2048"  />

      
      <glyph glyph-name="unid5" unicode="&#xd5;" d="M1425 1258C1289 1389 1104 1454 871 1454C637 1454 452 1389 317 1258C181 1127 113 946 113 717C113 488 181 308 317 177C452 46 637-20 871-20C1104-20 1289 46 1425 177C1560 308 1628 488 1628 717C1628 946 1560 1127 1425 1258ZM1131 427C1072 352 985 315 870 315C755 315 669 352 610 427C551 502 522 598 522 717C522 836 551 932 610 1007C669 1081 755 1118 870 1118C985 1118 1072 1081 1131 1007C1190 932 1219 836 1219 717C1219 598 1190 502 1131 427ZM686 1577C750 1577 812 1593 872 1624C932 1655 974 1671 999 1671C1032 1671 1049 1656 1049 1626C1048 1612 1046 1600 1042 1591L1249 1591L1253 1604C1256 1620 1262 1657 1262 1690C1262 1746 1242 1788 1203 1816C1163 1844 1114 1858 1055 1858C989 1858 927 1842 868 1811C809 1779 767 1763 741 1763C708 1763 692 1778 692 1808C692 1823 694 1835 698 1843L492 1843L487 1831C484 1815 479 1778 479 1745C479 1689 499 1647 539 1619C578 1591 627 1577 686 1577Z"  horiz-adv-x="1740" vert-adv-y="2048"  />

      
      <glyph glyph-name="unid6" unicode="&#xd6;" d="M1425 1258C1289 1389 1104 1454 871 1454C637 1454 452 1389 317 1258C181 1127 113 946 113 717C113 488 181 308 317 177C452 46 637-20 871-20C1104-20 1289 46 1425 177C1560 308 1628 488 1628 717C1628 946 1560 1127 1425 1258ZM1131 427C1072 352 985 315 870 315C755 315 669 352 610 427C551 502 522 598 522 717C522 836 551 932 610 1007C669 1081 755 1118 870 1118C985 1118 1072 1081 1131 1007C1190 932 1219 836 1219 717C1219 598 1190 502 1131 427ZM645 1888C538 1888 485 1843 485 1753C485 1663 538 1618 645 1618C752 1618 805 1663 805 1753C805 1843 752 1888 645 1888ZM1096 1888C989 1888 936 1843 936 1753C936 1663 989 1618 1096 1618C1202 1618 1255 1663 1255 1753C1255 1843 1202 1888 1096 1888Z"  horiz-adv-x="1740" vert-adv-y="2048"  />

      
      <glyph glyph-name="unid7" unicode="&#xd7;" d="M334 553L102 330L276 156L500 387L723 156L897 330L666 553L897 776L723 950L500 719L276 950L102 776Z"  horiz-adv-x="999" vert-adv-y="2048"  />

      
      <glyph glyph-name="unid8" unicode="&#xd8;" d="M268 238L287 211C314 175 381 122 470 71C515 46 573 24 646 7C718-11 796-20 879-20C1112-20 1297 46 1433 177C1568 308 1636 488 1636 717C1637 807 1627 886 1606 954L1757 1036L1634 1274L1487 1196L1466 1223C1442 1258 1374 1312 1286 1363C1241 1388 1183 1410 1111 1428C1038 1445 961 1454 879 1454C645 1454 460 1389 325 1258C189 1127 121 946 121 717C121 626 131 546 152 477L0 397L123 160ZM1227 717C1227 598 1198 502 1139 427C1080 352 994 315 879 315C824 315 774 326 727 348C680 370 651 388 639 401C626 414 617 424 612 432L1225 762L1227 717ZM530 717C530 836 560 932 619 1007C678 1081 764 1118 879 1118C950 1118 1017 1099 1054 1079C1072 1068 1089 1056 1104 1043C1134 1015 1138 1006 1143 1001L532 672L530 717Z"  horiz-adv-x="1757" vert-adv-y="2048"  />

      
      <glyph glyph-name="unid9" unicode="&#xd9;" d="M1342 119C1469 212 1532 349 1532 530L1532 1434L1143 1434L1143 551C1143 468 1114 408 1056 371C998 334 925 315 838 315C751 315 678 334 620 371C561 408 532 468 532 551L532 1434L143 1434L143 530C143 349 207 212 334 119C461 26 629-20 838-20C1047-20 1215 26 1342 119ZM248 1946L705 1618L989 1618L682 1946Z"  horiz-adv-x="1675" vert-adv-y="2048"  />

      
      <glyph glyph-name="unida" unicode="&#xda;" d="M1342 119C1469 212 1532 349 1532 530L1532 1434L1143 1434L1143 551C1143 468 1114 408 1056 371C998 334 925 315 838 315C751 315 678 334 620 371C561 408 532 468 532 551L532 1434L143 1434L143 530C143 349 207 212 334 119C461 26 629-20 838-20C1047-20 1215 26 1342 119ZM944 1618L1401 1946L967 1946L659 1618Z"  horiz-adv-x="1675" vert-adv-y="2048"  />

      
      <glyph glyph-name="unidb" unicode="&#xdb;" d="M1342 119C1469 212 1532 349 1532 530L1532 1434L1143 1434L1143 551C1143 468 1114 408 1056 371C998 334 925 315 838 315C751 315 678 334 620 371C561 408 532 468 532 551L532 1434L143 1434L143 530C143 349 207 212 334 119C461 26 629-20 838-20C1047-20 1215 26 1342 119ZM831 1823L846 1823L987 1618L1296 1618L1038 1946L639 1946L381 1618L690 1618Z"  horiz-adv-x="1675" vert-adv-y="2048"  />

      
      <glyph glyph-name="unidc" unicode="&#xdc;" d="M1342 119C1469 212 1532 349 1532 530L1532 1434L1143 1434L1143 551C1143 468 1114 408 1056 371C998 334 925 315 838 315C751 315 678 334 620 371C561 408 532 468 532 551L532 1434L143 1434L143 530C143 349 207 212 334 119C461 26 629-20 838-20C1047-20 1215 26 1342 119ZM613 1888C506 1888 453 1843 453 1753C453 1663 506 1618 613 1618C719 1618 772 1663 772 1753C772 1843 719 1888 613 1888ZM1063 1888C956 1888 903 1843 903 1753C903 1663 956 1618 1063 1618C1170 1618 1223 1663 1223 1753C1223 1843 1170 1888 1063 1888Z"  horiz-adv-x="1675" vert-adv-y="2048"  />

      
      <glyph glyph-name="unidd" unicode="&#xdd;" d="M711 825L422 1434L0 1434L504 483L504 0L946 0L946 483L1450 1434L1028 1434L739 825ZM856 1618L1313 1946L879 1946L571 1618Z"  horiz-adv-x="1449" vert-adv-y="2048"  />

      
      <glyph glyph-name="unide" unicode="&#xde;" d="M543 0L543 221L811 221C1031 221 1191 263 1291 348C1390 433 1440 558 1440 725C1440 892 1390 1017 1291 1102C1191 1187 1031 1229 811 1229L543 1229L543 1434L154 1434L154 0ZM978 588C943 559 888 545 811 545L543 545L543 905L811 905C888 905 943 891 978 862C1013 833 1030 788 1030 725C1030 662 1013 617 978 588Z"  horiz-adv-x="1531" vert-adv-y="2048"  />

      
      <glyph glyph-name="unidf" unicode="&#xdf;" d="M844 1055C844 1003 826 951 790 900C753 849 735 806 735 772C735 683 786 619 847 585C935 535 1051 494 1051 397C1050 307 989 262 866 262C824 263 787 269 754 281L754 4L774-2C802-10 867-20 924-20C1237-20 1415 121 1415 369C1415 494 1365 588 1299 635C1202 704 1083 742 1083 817C1079 871 1214 949 1208 1108C1208 1206 1165 1288 1080 1355C994 1421 872 1454 715 1454C368 1454 213 1306 213 1014L213 993L31 915L31 719L213 719L213 0L569 0L569 1004C570 1115 618 1171 713 1171C800 1172 844 1133 844 1055Z"  horiz-adv-x="1486" vert-adv-y="2048"  />

      
      <glyph glyph-name="unie0" unicode="&#xe0;" d="M92 293C92 189 131 111 210 59C289 6 388-20 508-20C625-20 724 3 775 32C855 76 887 128 883 133L899 133L905 119C916 96 943 63 980 33C1017 3 1088-20 1167-20C1237-20 1286-13 1313 0L1313 293L1276 287C1235 287 1219 310 1219 381L1219 672C1218 920 1042 1044 690 1044C519 1044 386 1014 290 953C193 892 145 803 145 684L510 684C510 752 569 799 686 799C803 799 862 757 862 672L862 530L836 549C818 562 783 575 730 588C677 600 616 606 547 606C413 606 304 581 219 530C134 479 92 400 92 293ZM854 309C854 253 788 225 656 225C523 225 457 253 457 309C457 365 523 393 656 393C788 393 854 365 854 309ZM129 1536L586 1208L870 1208L563 1536Z"  horiz-adv-x="1374" vert-adv-y="2048"  />

      
      <glyph glyph-name="unie1" unicode="&#xe1;" d="M92 293C92 189 131 111 210 59C289 6 388-20 508-20C625-20 724 3 775 32C855 76 887 128 883 133L899 133L905 119C916 96 943 63 980 33C1017 3 1088-20 1167-20C1237-20 1286-13 1313 0L1313 293L1276 287C1235 287 1219 310 1219 381L1219 672C1218 920 1042 1044 690 1044C519 1044 386 1014 290 953C193 892 145 803 145 684L510 684C510 752 569 799 686 799C803 799 862 757 862 672L862 530L836 549C818 562 783 575 730 588C677 600 616 606 547 606C413 606 304 581 219 530C134 479 92 400 92 293ZM854 309C854 253 788 225 656 225C523 225 457 253 457 309C457 365 523 393 656 393C788 393 854 365 854 309ZM819 1208L1276 1536L842 1536L535 1208Z"  horiz-adv-x="1374" vert-adv-y="2048"  />

      
      <glyph glyph-name="unie2" unicode="&#xe2;" d="M92 293C92 189 131 111 210 59C289 6 388-20 508-20C625-20 724 3 775 32C855 76 887 128 883 133L899 133L905 119C916 96 943 63 980 33C1017 3 1088-20 1167-20C1237-20 1286-13 1313 0L1313 293L1276 287C1235 287 1219 310 1219 381L1219 672C1218 920 1042 1044 690 1044C519 1044 386 1014 290 953C193 892 145 803 145 684L510 684C510 752 569 799 686 799C803 799 862 757 862 672L862 530L836 549C818 562 783 575 730 588C677 600 616 606 547 606C413 606 304 581 219 530C134 479 92 400 92 293ZM854 309C854 253 788 225 656 225C523 225 457 253 457 309C457 365 523 393 656 393C788 393 854 365 854 309ZM696 1413L711 1413L852 1208L1161 1208L903 1536L504 1536L246 1208L555 1208Z"  horiz-adv-x="1374" vert-adv-y="2048"  />

      
      <glyph glyph-name="unie3" unicode="&#xe3;" d="M92 293C92 189 131 111 210 59C289 6 388-20 508-20C625-20 724 3 775 32C855 76 887 128 883 133L899 133L905 119C916 96 943 63 980 33C1017 3 1088-20 1167-20C1237-20 1286-13 1313 0L1313 293L1276 287C1235 287 1219 310 1219 381L1219 672C1218 920 1042 1044 690 1044C519 1044 386 1014 290 953C193 892 145 803 145 684L510 684C510 752 569 799 686 799C803 799 862 757 862 672L862 530L836 549C818 562 783 575 730 588C677 600 616 606 547 606C413 606 304 581 219 530C134 479 92 400 92 293ZM854 309C854 253 788 225 656 225C523 225 457 253 457 309C457 365 523 393 656 393C788 393 854 365 854 309ZM518 1188C582 1188 644 1204 704 1235C764 1266 806 1282 831 1282C864 1282 881 1267 881 1237C880 1223 878 1211 874 1202L1081 1202L1085 1214C1088 1231 1094 1267 1094 1300C1094 1356 1074 1398 1035 1426C995 1454 946 1468 887 1468C821 1468 759 1452 700 1421C641 1390 599 1374 573 1374C540 1374 524 1389 524 1419C524 1434 526 1446 530 1454L324 1454L319 1442C316 1426 311 1389 311 1356C311 1300 331 1258 371 1230C410 1202 459 1188 518 1188Z"  horiz-adv-x="1374" vert-adv-y="2048"  />

      
      <glyph glyph-name="unie4" unicode="&#xe4;" d="M92 293C92 189 131 111 210 59C289 6 388-20 508-20C625-20 724 3 775 32C855 76 887 128 883 133L899 133L905 119C916 96 943 63 980 33C1017 3 1088-20 1167-20C1237-20 1286-13 1313 0L1313 293L1276 287C1235 287 1219 310 1219 381L1219 672C1218 920 1042 1044 690 1044C519 1044 386 1014 290 953C193 892 145 803 145 684L510 684C510 752 569 799 686 799C803 799 862 757 862 672L862 530L836 549C818 562 783 575 730 588C677 600 616 606 547 606C413 606 304 581 219 530C134 479 92 400 92 293ZM854 309C854 253 788 225 656 225C523 225 457 253 457 309C457 365 523 393 656 393C788 393 854 365 854 309ZM482 1458C375 1458 322 1413 322 1323C322 1233 375 1188 482 1188C588 1188 641 1233 641 1323C641 1413 588 1458 482 1458ZM932 1458C825 1458 772 1413 772 1323C772 1233 825 1188 932 1188C1039 1188 1092 1233 1092 1323C1092 1413 1039 1458 932 1458Z"  horiz-adv-x="1374" vert-adv-y="2048"  />

      
      <glyph glyph-name="unie5" unicode="&#xe5;" d="M92 293C92 189 131 111 210 59C289 6 388-20 508-20C625-20 724 3 775 32C855 76 887 128 883 133L899 133L905 119C916 96 943 63 980 33C1017 3 1088-20 1167-20C1237-20 1286-13 1313 0L1313 293L1276 287C1235 287 1219 310 1219 381L1219 672C1218 920 1042 1044 690 1044C519 1044 386 1014 290 953C193 892 145 803 145 684L510 684C510 752 569 799 686 799C803 799 862 757 862 672L862 530L836 549C818 562 783 575 730 588C677 600 616 606 547 606C413 606 304 581 219 530C134 479 92 400 92 293ZM854 309C854 253 788 225 656 225C523 225 457 253 457 309C457 365 523 393 656 393C788 393 854 365 854 309ZM519 1185C564 1146 625 1126 703 1126C780 1126 842 1146 887 1185C932 1224 954 1277 954 1344C954 1411 932 1464 887 1503C842 1542 780 1561 703 1561C625 1561 564 1542 519 1503C474 1464 451 1411 451 1344C451 1277 474 1224 519 1185ZM703 1286C663 1286 643 1305 643 1344C643 1382 663 1401 703 1401C742 1401 762 1382 762 1344C762 1305 742 1286 703 1286Z"  horiz-adv-x="1374" vert-adv-y="2048"  />

      
      <glyph glyph-name="unie6" unicode="&#xe6;" d="M2048 496C2048 680 1997 817 1894 908C1791 999 1652 1044 1477 1044C1365 1044 1259 1017 1203 989C1175 974 1149 957 1126 938C1078 899 1072 889 1067 881L1042 881L1028 897C1012 918 968 955 911 988C854 1020 758 1044 657 1044C498 1044 373 1012 283 947C192 882 147 798 147 694L512 694C512 751 576 799 688 799C768 799 822 776 844 736C866 695 872 661 872 606L674 606C281 606 92 518 92 291C92 84 261-20 598-20C721-20 837 7 898 36C929 50 956 66 981 85C1030 122 1037 133 1042 141L1067 141L1081 125C1101 104 1147 69 1212 37C1276 4 1387-20 1507-20C1597-20 1677-8 1746 16C1815 39 1866 66 1900 95C1933 124 1961 158 1982 197C2003 235 2015 262 2018 277C2021 292 2024 304 2025 313L1647 313L1642 303C1633 283 1599 225 1464 225C1325 225 1240 291 1237 430L2044 430ZM651 225C521 225 456 259 457 326C457 395 526 430 664 430L872 430C872 352 858 298 831 269C804 240 744 225 651 225ZM1458 799C1522 799 1573 781 1611 744C1648 707 1667 661 1667 606L1237 606C1237 663 1258 710 1301 746C1343 781 1395 799 1458 799Z"  horiz-adv-x="2140" vert-adv-y="2048"  />

      
      <glyph glyph-name="unie7" unicode="&#xe7;" d="M567-190L702-190C745-191 766-208 766-242C765-277 744-295 702-295C663-295 643-277 643-242L485-242C485-358 557-416 702-416C839-416 924-359 924-242C924-130 849-70 721-70L721-66L764-16C921-4 1046 44 1141 128C1235 212 1282 311 1282 426L915 426L901 389C893 364 871 340 834 316C797 291 749 279 692 279C621 279 565 300 522 343C479 385 457 441 457 512C457 583 479 639 522 682C565 724 621 745 692 745C763 745 823 720 854 694C869 681 882 666 892 650C912 617 912 606 915 598L1282 598C1282 721 1228 826 1119 913C1010 1000 868 1044 692 1044C512 1044 367 998 257 906C147 814 92 683 92 512C92 352 141 226 239 135C336 44 466-7 629-18L567-88Z"  horiz-adv-x="1363" vert-adv-y="2048"  />

      
      <glyph glyph-name="unie8" unicode="&#xe8;" d="M1290 512C1290 683 1235 814 1125 906C1015 998 871 1044 692 1044C511 1044 365 998 256 906C147 814 92 683 92 512C92 340 147 208 257 117C367 26 513-20 694-20C767-20 833-14 893-1C1013 24 1083 65 1142 118C1201 171 1226 213 1246 261C1265 309 1266 319 1266 330L885 330L870 303C861 287 840 270 808 252C776 234 738 225 694 225C539 225 468 311 465 442L1284 442ZM692 799C759 799 811 781 849 745C886 709 905 669 905 625L473 625C473 670 493 710 532 746C571 781 624 799 692 799ZM104 1536L561 1208L846 1208L539 1536Z"  horiz-adv-x="1382" vert-adv-y="2048"  />

      
      <glyph glyph-name="unie9" unicode="&#xe9;" d="M1290 512C1290 683 1235 814 1125 906C1015 998 871 1044 692 1044C511 1044 365 998 256 906C147 814 92 683 92 512C92 340 147 208 257 117C367 26 513-20 694-20C767-20 833-14 893-1C1013 24 1083 65 1142 118C1201 171 1226 213 1246 261C1265 309 1266 319 1266 330L885 330L870 303C861 287 840 270 808 252C776 234 738 225 694 225C539 225 468 311 465 442L1284 442ZM692 799C759 799 811 781 849 745C886 709 905 669 905 625L473 625C473 670 493 710 532 746C571 781 624 799 692 799ZM809 1208L1266 1536L831 1536L524 1208Z"  horiz-adv-x="1382" vert-adv-y="2048"  />

      
      <glyph glyph-name="uniea" unicode="&#xea;" d="M1290 512C1290 683 1235 814 1125 906C1015 998 871 1044 692 1044C511 1044 365 998 256 906C147 814 92 683 92 512C92 340 147 208 257 117C367 26 513-20 694-20C767-20 833-14 893-1C1013 24 1083 65 1142 118C1201 171 1226 213 1246 261C1265 309 1266 319 1266 330L885 330L870 303C861 287 840 270 808 252C776 234 738 225 694 225C539 225 468 311 465 442L1284 442ZM692 799C759 799 811 781 849 745C886 709 905 669 905 625L473 625C473 670 493 710 532 746C571 781 624 799 692 799ZM684 1413L698 1413L840 1208L1149 1208L891 1536L492 1536L233 1208L543 1208Z"  horiz-adv-x="1382" vert-adv-y="2048"  />

      
      <glyph glyph-name="unieb" unicode="&#xeb;" d="M1290 512C1290 683 1235 814 1125 906C1015 998 871 1044 692 1044C511 1044 365 998 256 906C147 814 92 683 92 512C92 340 147 208 257 117C367 26 513-20 694-20C767-20 833-14 893-1C1013 24 1083 65 1142 118C1201 171 1226 213 1246 261C1265 309 1266 319 1266 330L885 330L870 303C861 287 840 270 808 252C776 234 738 225 694 225C539 225 468 311 465 442L1284 442ZM692 799C759 799 811 781 849 745C886 709 905 669 905 625L473 625C473 670 493 710 532 746C571 781 624 799 692 799ZM465 1458C358 1458 305 1413 305 1323C305 1233 358 1188 465 1188C572 1188 625 1233 625 1323C625 1413 572 1458 465 1458ZM916 1458C809 1458 756 1413 756 1323C756 1233 809 1188 916 1188C1022 1188 1075 1233 1075 1323C1075 1413 1022 1458 916 1458Z"  horiz-adv-x="1382" vert-adv-y="2048"  />

      
      <glyph glyph-name="uniec" unicode="&#xec;" d="M-287 1536L170 1208L455 1208L147 1536ZM133 1024L133 0L489 0L489 1024Z"  horiz-adv-x="622" vert-adv-y="2048"  />

      
      <glyph glyph-name="unied" unicode="&#xed;" d="M442 1208L899 1536L465 1536L158 1208ZM133 1024L133 0L489 0L489 1024Z"  horiz-adv-x="622" vert-adv-y="2048"  />

      
      <glyph glyph-name="uniee" unicode="&#xee;" d="M133 1024L133 0L489 0L489 1024ZM305 1413L319 1413L461 1208L770 1208L512 1536L113 1536L-145 1208L164 1208Z"  horiz-adv-x="622" vert-adv-y="2048"  />

      
      <glyph glyph-name="unief" unicode="&#xef;" d="M86 1458C-21 1458-74 1413-74 1323C-74 1233-21 1188 86 1188C193 1188 246 1233 246 1323C246 1413 193 1458 86 1458ZM537 1458C430 1458 377 1413 377 1323C377 1233 430 1188 537 1188C643 1188 696 1233 696 1323C696 1413 643 1458 537 1458ZM133 1024L133 0L489 0L489 1024Z"  horiz-adv-x="622" vert-adv-y="2048"  />

      
      <glyph glyph-name="unif0" unicode="&#xf0;" d="M647 1122L676 1112C711 1099 769 1063 821 1016C873 969 915 889 915 805L901 805L874 831C857 850 822 869 769 888C716 906 655 915 586 915C430 915 309 875 222 795C135 714 92 600 92 451C92 303 147 188 257 105C367 22 511-20 688-20C868-20 1013 34 1123 141C1233 248 1288 408 1288 623L1288 639C1288 751 1269 854 1232 949C1195 1043 1153 1116 1106 1168C1059 1219 1006 1265 946 1306C886 1346 844 1371 820 1382C796 1392 777 1399 764 1403L811 1516L578 1610L526 1487C480 1504 432 1517 381 1528L276 1272L418 1225L365 1098L596 1001ZM853 581C894 548 915 504 915 449C915 393 894 349 853 316C812 283 756 266 687 266C617 266 561 283 520 316C478 349 457 393 457 449C457 504 478 548 520 581C561 613 617 629 687 629C756 629 812 613 853 581Z"  horiz-adv-x="1400" vert-adv-y="2048"  />

      
      <glyph glyph-name="unif1" unicode="&#xf1;" d="M1294 0L1294 606C1294 752 1257 862 1182 935C1107 1008 1006 1044 877 1044C768 1044 670 1010 620 975C595 957 572 937 553 915C514 870 513 857 508 846L489 846L489 1024L133 1024L133 0L489 0L489 504C489 643 567 733 715 733C856 733 938 649 938 504L938 0ZM526 1188C590 1188 652 1204 713 1235C773 1266 815 1282 840 1282C873 1282 889 1267 889 1237C889 1223 887 1211 883 1202L1090 1202L1094 1214C1097 1231 1102 1267 1102 1300C1102 1356 1082 1398 1043 1426C1003 1454 954 1468 895 1468C830 1468 768 1452 709 1421C650 1390 608 1374 582 1374C549 1374 532 1389 532 1419C533 1434 535 1446 539 1454L332 1454L328 1442C325 1426 319 1389 319 1356C319 1300 339 1258 379 1230C418 1202 467 1188 526 1188Z"  horiz-adv-x="1417" vert-adv-y="2048"  />

      
      <glyph glyph-name="unif2" unicode="&#xf2;" d="M256 906C147 814 92 683 92 512C92 341 147 210 256 118C365 26 511-20 693-20C874-20 1020 26 1129 118C1238 210 1292 341 1292 512C1292 683 1238 814 1129 906C1020 998 874 1044 693 1044C511 1044 365 998 256 906ZM522 349C479 390 457 444 457 512C457 580 479 635 522 676C565 717 622 737 693 737C764 737 821 717 864 676C907 635 928 580 928 512C928 444 907 390 864 349C821 308 764 287 693 287C622 287 565 308 522 349ZM102 1536L559 1208L844 1208L537 1536Z"  horiz-adv-x="1384" vert-adv-y="2048"  />

      
      <glyph glyph-name="unif3" unicode="&#xf3;" d="M256 906C147 814 92 683 92 512C92 341 147 210 256 118C365 26 511-20 693-20C874-20 1020 26 1129 118C1238 210 1292 341 1292 512C1292 683 1238 814 1129 906C1020 998 874 1044 693 1044C511 1044 365 998 256 906ZM522 349C479 390 457 444 457 512C457 580 479 635 522 676C565 717 622 737 693 737C764 737 821 717 864 676C907 635 928 580 928 512C928 444 907 390 864 349C821 308 764 287 693 287C622 287 565 308 522 349ZM805 1208L1262 1536L827 1536L520 1208Z"  horiz-adv-x="1384" vert-adv-y="2048"  />

      
      <glyph glyph-name="unif4" unicode="&#xf4;" d="M256 906C147 814 92 683 92 512C92 341 147 210 256 118C365 26 511-20 693-20C874-20 1020 26 1129 118C1238 210 1292 341 1292 512C1292 683 1238 814 1129 906C1020 998 874 1044 693 1044C511 1044 365 998 256 906ZM522 349C479 390 457 444 457 512C457 580 479 635 522 676C565 717 622 737 693 737C764 737 821 717 864 676C907 635 928 580 928 512C928 444 907 390 864 349C821 308 764 287 693 287C622 287 565 308 522 349ZM686 1413L700 1413L842 1208L1151 1208L893 1536L494 1536L236 1208L545 1208Z"  horiz-adv-x="1384" vert-adv-y="2048"  />

      
      <glyph glyph-name="unif5" unicode="&#xf5;" d="M256 906C147 814 92 683 92 512C92 341 147 210 256 118C365 26 511-20 693-20C874-20 1020 26 1129 118C1238 210 1292 341 1292 512C1292 683 1238 814 1129 906C1020 998 874 1044 693 1044C511 1044 365 998 256 906ZM522 349C479 390 457 444 457 512C457 580 479 635 522 676C565 717 622 737 693 737C764 737 821 717 864 676C907 635 928 580 928 512C928 444 907 390 864 349C821 308 764 287 693 287C622 287 565 308 522 349ZM508 1188C572 1188 634 1204 694 1235C754 1266 796 1282 821 1282C854 1282 870 1267 870 1237C870 1223 868 1211 864 1202L1071 1202L1073 1214C1078 1231 1083 1267 1083 1300C1083 1356 1063 1398 1024 1426C985 1454 936 1468 877 1468C811 1468 749 1452 690 1421C631 1390 589 1374 563 1374C530 1374 514 1389 514 1419C514 1434 516 1446 520 1454L313 1454L311 1442C306 1426 301 1389 301 1356C301 1300 321 1258 361 1230C400 1202 449 1188 508 1188Z"  horiz-adv-x="1384" vert-adv-y="2048"  />

      
      <glyph glyph-name="unif6" unicode="&#xf6;" d="M256 906C147 814 92 683 92 512C92 341 147 210 256 118C365 26 511-20 693-20C874-20 1020 26 1129 118C1238 210 1292 341 1292 512C1292 683 1238 814 1129 906C1020 998 874 1044 693 1044C511 1044 365 998 256 906ZM522 349C479 390 457 444 457 512C457 580 479 635 522 676C565 717 622 737 693 737C764 737 821 717 864 676C907 635 928 580 928 512C928 444 907 390 864 349C821 308 764 287 693 287C622 287 565 308 522 349ZM467 1458C360 1458 307 1413 307 1323C307 1233 360 1188 467 1188C574 1188 627 1233 627 1323C627 1413 574 1458 467 1458ZM918 1458C811 1458 758 1413 758 1323C758 1233 811 1188 918 1188C1024 1188 1077 1233 1077 1323C1077 1413 1024 1458 918 1458Z"  horiz-adv-x="1384" vert-adv-y="2048"  />

      
      <glyph glyph-name="unif7" unicode="&#xf7;" d="M541 322C418 322 356 275 356 181C356 86 418 39 541 39C664 39 725 86 725 181C725 275 664 322 541 322ZM102 635L102 410L979 410L979 635ZM541 1006C418 1006 356 959 356 865C356 770 418 723 541 723C664 723 725 770 725 865C725 959 664 1006 541 1006Z"  horiz-adv-x="1081" vert-adv-y="2048"  />

      
      <glyph glyph-name="unif8" unicode="&#xf8;" d="M233 137L250 121C269 98 323 65 390 35C457 5 572-20 692-20C874-20 1020 26 1129 118C1238 210 1292 341 1292 512C1292 603 1278 678 1251 737L1374 807L1284 963L1149 887L1133 903C1110 926 1059 960 992 990C925 1020 812 1044 692 1044C511 1044 365 998 256 906C147 814 92 683 92 512C92 421 106 346 133 287L10 217L100 61ZM692 287C625 287 576 301 543 330L924 557L928 512C928 444 906 390 863 349C820 308 763 287 692 287ZM457 512C457 580 479 635 522 676C565 717 621 737 692 737C754 737 803 723 838 694L459 469L457 512Z"  horiz-adv-x="1384" vert-adv-y="2048"  />

      
      <glyph glyph-name="unif9" unicode="&#xf9;" d="M133 1024L133 418C133 272 171 163 246 90C321 17 422-20 551-20C660-20 757 14 808 50C833 67 856 87 875 110C913 154 915 167 920 178L938 178L938 0L1294 0L1294 1024L938 1024L938 520C938 381 861 291 713 291C570 291 489 375 489 520L489 1024ZM123 1536L580 1208L864 1208L557 1536Z"  horiz-adv-x="1427" vert-adv-y="2048"  />

      
      <glyph glyph-name="unifa" unicode="&#xfa;" d="M133 1024L133 418C133 272 171 163 246 90C321 17 422-20 551-20C660-20 757 14 808 50C833 67 856 87 875 110C913 154 915 167 920 178L938 178L938 0L1294 0L1294 1024L938 1024L938 520C938 381 861 291 713 291C570 291 489 375 489 520L489 1024ZM831 1208L1288 1536L854 1536L547 1208Z"  horiz-adv-x="1427" vert-adv-y="2048"  />

      
      <glyph glyph-name="unifb" unicode="&#xfb;" d="M133 1024L133 418C133 272 171 163 246 90C321 17 422-20 551-20C660-20 757 14 808 50C833 67 856 87 875 110C913 154 915 167 920 178L938 178L938 0L1294 0L1294 1024L938 1024L938 520C938 381 861 291 713 291C570 291 489 375 489 520L489 1024ZM707 1413L721 1413L862 1208L1171 1208L913 1536L514 1536L256 1208L565 1208Z"  horiz-adv-x="1427" vert-adv-y="2048"  />

      
      <glyph glyph-name="unifc" unicode="&#xfc;" d="M133 1024L133 418C133 272 171 163 246 90C321 17 422-20 551-20C660-20 757 14 808 50C833 67 856 87 875 110C913 154 915 167 920 178L938 178L938 0L1294 0L1294 1024L938 1024L938 520C938 381 861 291 713 291C570 291 489 375 489 520L489 1024ZM488 1458C381 1458 328 1413 328 1323C328 1233 381 1188 488 1188C594 1188 647 1233 647 1323C647 1413 594 1458 488 1458ZM938 1458C831 1458 778 1413 778 1323C778 1233 831 1188 938 1188C1045 1188 1098 1233 1098 1323C1098 1413 1045 1458 938 1458Z"  horiz-adv-x="1427" vert-adv-y="2048"  />

      
      <glyph glyph-name="unifd" unicode="&#xfd;" d="M-20 1024L469 31L461 10C426-81 358-127 258-127C210-127 172-121 143-109L143-406L168-412C201-420 267-430 319-430C436-430 532-393 607-320C682-246 750-136 811 10L1239 1024L862 1024L668 522L641 317L612 317L586 522L354 1024ZM733 1208L1190 1536L756 1536L449 1208Z"  horiz-adv-x="1218" vert-adv-y="2048"  />

      
      <glyph glyph-name="unife" unicode="&#xfe;" d="M1197 904C1106 997 993 1044 856 1044C781 1044 713 1032 653 1008C593 983 555 963 540 948C524 933 512 920 504 911L489 911L489 1434L133 1434L133-410L489-410L489 113L504 113L516 98C532 82 571 52 623 26C675-1 763-20 856-20C993-20 1106 27 1197 120C1288 213 1333 344 1333 512C1333 680 1288 811 1197 904ZM905 353C862 312 803 291 729 291C655 291 597 311 554 351C511 390 489 444 489 512C489 580 511 634 554 674C597 713 655 733 729 733C803 733 862 713 905 672C948 631 969 577 969 512C969 447 948 394 905 353Z"  horiz-adv-x="1425" vert-adv-y="2048"  />

      
      <glyph glyph-name="uniff" unicode="&#xff;" d="M-20 1024L469 31L461 10C426-81 358-127 258-127C210-127 172-121 143-109L143-406L168-412C201-420 267-430 319-430C436-430 532-393 607-320C682-246 750-136 811 10L1239 1024L862 1024L668 522L641 317L612 317L586 522L354 1024ZM383 1458C276 1458 223 1413 223 1323C223 1233 276 1188 383 1188C490 1188 543 1233 543 1323C543 1413 490 1458 383 1458ZM834 1458C727 1458 674 1413 674 1323C674 1233 727 1188 834 1188C940 1188 993 1233 993 1323C993 1413 940 1458 834 1458Z"  horiz-adv-x="1218" vert-adv-y="2048"  />

      
      <glyph glyph-name="uni0100" unicode="&#x0100;" d="M563 1434L-10 0L397 0L485 219L1137 219L1225 0L1632 0L1059 1434ZM594 514L799 1055L823 1055L1028 514ZM1153 1628L1153 1837L469 1837L469 1628Z"  horiz-adv-x="1622" vert-adv-y="2048"  />

      
      <glyph glyph-name="uni0101" unicode="&#x0101;" d="M92 293C92 189 131 111 210 59C289 6 388-20 508-20C625-20 724 3 775 32C855 76 887 128 883 133L899 133L905 119C916 96 943 63 980 33C1017 3 1088-20 1167-20C1237-20 1286-13 1313 0L1313 293L1276 287C1235 287 1219 310 1219 381L1219 672C1218 920 1042 1044 690 1044C519 1044 386 1014 290 953C193 892 145 803 145 684L510 684C510 752 569 799 686 799C803 799 862 757 862 672L862 530L836 549C818 562 783 575 730 588C677 600 616 606 547 606C413 606 304 581 219 530C134 479 92 400 92 293ZM854 309C854 253 788 225 656 225C523 225 457 253 457 309C457 365 523 393 656 393C788 393 854 365 854 309ZM1028 1219L1028 1427L344 1427L344 1219Z"  horiz-adv-x="1374" vert-adv-y="2048"  />

      
      <glyph glyph-name="uni0102" unicode="&#x0102;" d="M563 1434L-10 0L397 0L485 219L1137 219L1225 0L1632 0L1059 1434ZM594 514L799 1055L823 1055L1028 514ZM1067 1677C1128 1722 1159 1791 1159 1884L1159 1888L922 1888L922 1884C922 1837 887 1802 811 1802C735 1802 700 1837 700 1884L700 1888L463 1888L463 1884C463 1791 494 1722 555 1677C616 1631 702 1608 811 1608C920 1608 1006 1631 1067 1677Z"  horiz-adv-x="1622" vert-adv-y="2048"  />

      
      <glyph glyph-name="uni0103" unicode="&#x0103;" d="M92 293C92 189 131 111 210 59C289 6 388-20 508-20C625-20 724 3 775 32C855 76 887 128 883 133L899 133L905 119C916 96 943 63 980 33C1017 3 1088-20 1167-20C1237-20 1286-13 1313 0L1313 293L1276 287C1235 287 1219 310 1219 381L1219 672C1218 920 1042 1044 690 1044C519 1044 386 1014 290 953C193 892 145 803 145 684L510 684C510 752 569 799 686 799C803 799 862 757 862 672L862 530L836 549C818 562 783 575 730 588C677 600 616 606 547 606C413 606 304 581 219 530C134 479 92 400 92 293ZM854 309C854 253 788 225 656 225C523 225 457 253 457 309C457 365 523 393 656 393C788 393 854 365 854 309ZM959 1257C1020 1302 1051 1371 1051 1464L1051 1468L813 1468L813 1464C813 1419 779 1382 703 1382C626 1382 592 1417 592 1464L592 1468L354 1468L354 1464C354 1371 385 1302 447 1257C508 1211 594 1188 703 1188C812 1188 897 1211 959 1257Z"  horiz-adv-x="1374" vert-adv-y="2048"  />

      
      <glyph glyph-name="uni0104" unicode="&#x0104;" d="M563 1434L-10 0L397 0L485 219L1137 219L1225 0L1430 0C1345-51 1303-111 1303-182C1303-299 1388-358 1524-358C1657-358 1743-299 1743-182L1581-182C1581-218 1562-236 1524-236C1484-235 1464-217 1464-182C1464-145 1494-101 1523-74C1537-60 1554-47 1574-34C1614-8 1624-5 1632 0L1059 1434ZM594 514L799 1055L823 1055L1028 514Z"  horiz-adv-x="1622" vert-adv-y="2048"  />

      
      <glyph glyph-name="uni0105" unicode="&#x0105;" d="M92 293C92 189 131 111 210 59C289 6 388-20 508-20C625-20 724 3 775 32C855 76 887 128 883 133L899 133L913 102C923 83 944 62 975 38C1006 14 1043-3 1087-12L1061-31C1044-43 1027-63 1010-92C992-121 983-151 983-182C983-299 1068-358 1204-358C1339-358 1423-299 1423-182L1262-182C1261-218 1242-236 1204-236C1165-235 1145-217 1145-182C1145-142 1175-99 1204-72C1218-58 1235-45 1255-33C1294-8 1305-5 1313 0L1313 293L1276 287C1235 287 1219 310 1219 381L1219 672C1218 920 1042 1044 690 1044C519 1044 386 1014 290 953C193 892 145 803 145 684L510 684C510 752 569 799 686 799C803 799 862 757 862 672L862 530L836 549C818 562 783 575 730 588C677 600 616 606 547 606C413 606 304 581 219 530C134 479 92 400 92 293ZM854 309C854 253 788 225 656 225C523 225 457 253 457 309C457 365 523 393 656 393C788 393 854 365 854 309Z"  horiz-adv-x="1374" vert-adv-y="2048"  />

      
      <glyph glyph-name="uni0106" unicode="&#x0106;" d="M609 1006C667 1081 751 1118 862 1118C977 1118 1067 1074 1108 1029C1129 1006 1146 980 1160 950C1187 890 1186 873 1186 860L1595 860C1595 1033 1528 1176 1393 1287C1258 1398 1081 1454 862 1454C634 1454 452 1389 317 1258C181 1127 113 946 113 717C113 488 181 308 317 177C452 46 634-20 862-20C1081-20 1258 36 1393 147C1528 258 1595 400 1595 573L1186 573L1182 547C1177 511 1152 457 1109 407C1066 357 977 315 862 315C751 315 667 353 609 428C551 503 522 600 522 717C522 834 551 931 609 1006ZM987 1618L1444 1946L1010 1946L702 1618Z"  horiz-adv-x="1697" vert-adv-y="2048"  />

      
      <glyph glyph-name="uni0107" unicode="&#x0107;" d="M257 118C367 26 512-20 692-20C868-20 1010 24 1119 111C1228 198 1282 303 1282 426L915 426L901 389C893 364 871 340 834 316C797 291 749 279 692 279C621 279 565 300 522 343C479 385 457 441 457 512C457 583 479 639 522 682C565 724 621 745 692 745C763 745 823 720 854 694C869 681 882 666 892 650C912 617 912 606 915 598L1282 598C1282 721 1228 826 1119 913C1010 1000 868 1044 692 1044C512 1044 367 998 257 906C147 814 92 683 92 512C92 341 147 210 257 118ZM803 1208L1260 1536L825 1536L518 1208Z"  horiz-adv-x="1363" vert-adv-y="2048"  />

      
      <glyph glyph-name="uni0108" unicode="&#x0108;" d="M609 1006C667 1081 751 1118 862 1118C977 1118 1067 1074 1108 1029C1129 1006 1146 980 1160 950C1187 890 1186 873 1186 860L1595 860C1595 1033 1528 1176 1393 1287C1258 1398 1081 1454 862 1454C634 1454 452 1389 317 1258C181 1127 113 946 113 717C113 488 181 308 317 177C452 46 634-20 862-20C1081-20 1258 36 1393 147C1528 258 1595 400 1595 573L1186 573L1182 547C1177 511 1152 457 1109 407C1066 357 977 315 862 315C751 315 667 353 609 428C551 503 522 600 522 717C522 834 551 931 609 1006ZM848 1823L862 1823L1004 1618L1313 1618L1055 1946L655 1946L397 1618L707 1618Z"  horiz-adv-x="1697" vert-adv-y="2048"  />

      
      <glyph glyph-name="uni0109" unicode="&#x0109;" d="M257 118C367 26 512-20 692-20C868-20 1010 24 1119 111C1228 198 1282 303 1282 426L915 426L901 389C893 364 871 340 834 316C797 291 749 279 692 279C621 279 565 300 522 343C479 385 457 441 457 512C457 583 479 639 522 682C565 724 621 745 692 745C763 745 823 720 854 694C869 681 882 666 892 650C912 617 912 606 915 598L1282 598C1282 721 1228 826 1119 913C1010 1000 868 1044 692 1044C512 1044 367 998 257 906C147 814 92 683 92 512C92 341 147 210 257 118ZM678 1413L692 1413L834 1208L1143 1208L885 1536L485 1536L227 1208L537 1208Z"  horiz-adv-x="1363" vert-adv-y="2048"  />

      
      <glyph glyph-name="uni010C" unicode="&#x010C;" d="M609 1006C667 1081 751 1118 862 1118C977 1118 1067 1074 1108 1029C1129 1006 1146 980 1160 950C1187 890 1186 873 1186 860L1595 860C1595 1033 1528 1176 1393 1287C1258 1398 1081 1454 862 1454C634 1454 452 1389 317 1258C181 1127 113 946 113 717C113 488 181 308 317 177C452 46 634-20 862-20C1081-20 1258 36 1393 147C1528 258 1595 400 1595 573L1186 573L1182 547C1177 511 1152 457 1109 407C1066 357 977 315 862 315C751 315 667 353 609 428C551 503 522 600 522 717C522 834 551 931 609 1006ZM655 1618L1055 1618L1313 1946L1004 1946L862 1741L848 1741L707 1946L397 1946Z"  horiz-adv-x="1697" vert-adv-y="2048"  />

      
      <glyph glyph-name="uni010D" unicode="&#x010D;" d="M257 118C367 26 512-20 692-20C868-20 1010 24 1119 111C1228 198 1282 303 1282 426L915 426L901 389C893 364 871 340 834 316C797 291 749 279 692 279C621 279 565 300 522 343C479 385 457 441 457 512C457 583 479 639 522 682C565 724 621 745 692 745C763 745 823 720 854 694C869 681 882 666 892 650C912 617 912 606 915 598L1282 598C1282 721 1228 826 1119 913C1010 1000 868 1044 692 1044C512 1044 367 998 257 906C147 814 92 683 92 512C92 341 147 210 257 118ZM487 1208L887 1208L1145 1536L836 1536L694 1331L680 1331L539 1536L229 1536Z"  horiz-adv-x="1363" vert-adv-y="2048"  />

      
      <glyph glyph-name="uni010E" unicode="&#x010E;" d="M154 1434L154 0L758 0C998 0 1184 62 1316 186C1447 309 1513 486 1513 717C1513 948 1447 1125 1316 1249C1184 1372 998 1434 758 1434ZM758 1106C874 1106 961 1071 1018 1000C1075 929 1104 834 1104 717C1104 600 1075 506 1018 435C961 364 874 328 758 328L543 328L543 1106ZM514 1618L913 1618L1171 1946L862 1946L721 1741L707 1741L565 1946L256 1946Z"  horiz-adv-x="1626" vert-adv-y="2048"  />

      
      <glyph glyph-name="uni010F" unicode="&#x010F;" d="M228 120C319 27 432-20 569-20C668-20 758 15 806 49C830 66 852 85 872 108C911 152 915 165 920 176L936 176L936 0L1292 0L1292 1434L936 1434L936 911L922 911L909 926C893 942 855 973 803 999C751 1025 662 1044 569 1044C433 1044 320 997 229 904C138 811 92 680 92 512C92 344 137 213 228 120ZM522 672C565 713 623 733 697 733C844 733 936 648 936 512C936 447 915 394 873 353C830 312 771 291 696 291C623 291 565 312 522 353C479 394 457 447 457 512C457 577 479 631 522 672ZM1530 981C1578 981 1622 1007 1661 1060C1700 1113 1720 1182 1720 1268C1720 1392 1665 1454 1554 1454C1462 1454 1395 1403 1395 1315C1395 1230 1430 1192 1463 1191C1495 1190 1530 1163 1530 1098Z"  horiz-adv-x="1658" vert-adv-y="2048"  />

      
      <glyph glyph-name="uni0110" unicode="&#x0110;" d="M238 1434L238 872L31 872L31 578L238 578L238 0L842 0C1082 0 1268 62 1400 186C1531 309 1597 486 1597 717C1597 948 1531 1125 1400 1249C1268 1372 1082 1434 842 1434ZM842 1106C958 1106 1045 1071 1102 1000C1159 929 1188 834 1188 717C1188 600 1159 506 1102 435C1045 364 958 328 842 328L627 328L627 578L874 578L874 872L627 872L627 1106Z"  horiz-adv-x="1710" vert-adv-y="2048"  />

      
      <glyph glyph-name="uni0111" unicode="&#x0111;" d="M928 1024L928 784L911 784L899 799C883 815 842 842 792 866C742 889 656 909 565 909C430 909 317 870 227 791C137 712 92 597 92 444C92 294 136 179 223 100C310 20 419-20 549-20C653-20 745 9 797 45C878 101 913 164 909 168L928 168L928 0L1284 0L1284 1024L1505 1024L1505 1298L1284 1298L1284 1434L928 1434L928 1298L606 1298L606 1024ZM867 322C826 290 768 274 693 274C618 274 560 290 519 322C478 353 457 394 457 445C457 495 478 536 519 567C560 598 618 614 693 614C768 614 826 598 867 567C908 536 928 495 928 445C928 394 908 353 867 322Z"  horiz-adv-x="1495" vert-adv-y="2048"  />

      
      <glyph glyph-name="uni0112" unicode="&#x0112;" d="M1378 0L1378 311L543 311L543 586L1239 586L1239 881L543 881L543 1122L1378 1122L1378 1434L154 1434L154 0ZM1120 1628L1120 1837L436 1837L436 1628Z"  horiz-adv-x="1490" vert-adv-y="2048"  />

      
      <glyph glyph-name="uni0113" unicode="&#x0113;" d="M1290 512C1290 683 1235 814 1125 906C1015 998 871 1044 692 1044C511 1044 365 998 256 906C147 814 92 683 92 512C92 340 147 208 257 117C367 26 513-20 694-20C767-20 833-14 893-1C1013 24 1083 65 1142 118C1201 171 1226 213 1246 261C1265 309 1266 319 1266 330L885 330L870 303C861 287 840 270 808 252C776 234 738 225 694 225C539 225 468 311 465 442L1284 442ZM692 799C759 799 811 781 849 745C886 709 905 669 905 625L473 625C473 670 493 710 532 746C571 781 624 799 692 799ZM1030 1221L1030 1430L346 1430L346 1221Z"  horiz-adv-x="1382" vert-adv-y="2048"  />

      
      <glyph glyph-name="uni0116" unicode="&#x0116;" d="M1378 0L1378 311L543 311L543 586L1239 586L1239 881L543 881L543 1122L1378 1122L1378 1434L154 1434L154 0ZM651 1638C685 1611 732 1597 791 1597C850 1597 896 1611 930 1638C964 1665 981 1703 981 1751C981 1799 964 1837 930 1864C896 1891 850 1905 791 1905C732 1905 685 1891 651 1864C617 1837 600 1799 600 1751C600 1703 617 1665 651 1638Z"  horiz-adv-x="1490" vert-adv-y="2048"  />

      
      <glyph glyph-name="uni0117" unicode="&#x0117;" d="M1290 512C1290 683 1235 814 1125 906C1015 998 871 1044 692 1044C511 1044 365 998 256 906C147 814 92 683 92 512C92 340 147 208 257 117C367 26 513-20 694-20C767-20 833-14 893-1C1013 24 1083 65 1142 118C1201 171 1226 213 1246 261C1265 309 1266 319 1266 330L885 330L870 303C861 287 840 270 808 252C776 234 738 225 694 225C539 225 468 311 465 442L1284 442ZM692 799C759 799 811 781 849 745C886 709 905 669 905 625L473 625C473 670 493 710 532 746C571 781 624 799 692 799ZM551 1208C585 1181 631 1167 690 1167C749 1167 795 1181 830 1208C864 1235 881 1273 881 1321C881 1369 864 1407 830 1434C795 1461 749 1475 690 1475C631 1475 585 1461 551 1434C517 1407 500 1369 500 1321C500 1273 517 1235 551 1208Z"  horiz-adv-x="1382" vert-adv-y="2048"  />

      
      <glyph glyph-name="uni0118" unicode="&#x0118;" d="M1176 0C1091-51 1049-111 1049-182C1049-299 1134-358 1270-358C1403-358 1489-299 1489-182L1327-182C1327-218 1308-236 1270-236C1230-235 1210-217 1210-182C1210-145 1240-101 1269-74C1283-60 1300-47 1320-34C1360-8 1370-5 1378 0L1378 311L543 311L543 586L1239 586L1239 881L543 881L543 1122L1378 1122L1378 1434L154 1434L154 0Z"  horiz-adv-x="1490" vert-adv-y="2048"  />

      
      <glyph glyph-name="uni0119" unicode="&#x0119;" d="M1290 512C1290 683 1235 814 1125 906C1015 998 871 1044 692 1044C511 1044 365 998 256 906C147 814 92 683 92 512C92 357 138 234 229 144C320 54 442 1 596-14C528-61 494-117 494-182C494-299 579-358 715-358C848-358 934-299 934-182L772-182C772-218 753-236 715-236C675-235 655-217 655-182C656-123 702-68 793-16C874-8 946 10 1009 37C1071 64 1117 93 1148 122C1179 151 1204 184 1224 221C1243 258 1255 283 1259 297C1262 311 1265 322 1266 330L885 330L870 303C861 287 840 270 808 252C776 234 738 225 694 225C539 225 468 311 465 442L1284 442ZM692 799C759 799 811 781 849 745C886 709 905 669 905 625L473 625C473 670 493 710 532 746C571 781 624 799 692 799Z"  horiz-adv-x="1382" vert-adv-y="2048"  />

      
      <glyph glyph-name="uni011A" unicode="&#x011A;" d="M1378 0L1378 311L543 311L543 586L1239 586L1239 881L543 881L543 1122L1378 1122L1378 1434L154 1434L154 0ZM573 1618L973 1618L1231 1946L922 1946L780 1741L766 1741L625 1946L315 1946Z"  horiz-adv-x="1490" vert-adv-y="2048"  />

      
      <glyph glyph-name="uni011B" unicode="&#x011B;" d="M1290 512C1290 683 1235 814 1125 906C1015 998 871 1044 692 1044C511 1044 365 998 256 906C147 814 92 683 92 512C92 340 147 208 257 117C367 26 513-20 694-20C767-20 833-14 893-1C1013 24 1083 65 1142 118C1201 171 1226 213 1246 261C1265 309 1266 319 1266 330L885 330L870 303C861 287 840 270 808 252C776 234 738 225 694 225C539 225 468 311 465 442L1284 442ZM692 799C759 799 811 781 849 745C886 709 905 669 905 625L473 625C473 670 493 710 532 746C571 781 624 799 692 799ZM492 1208L891 1208L1149 1536L840 1536L698 1331L684 1331L543 1536L233 1536Z"  horiz-adv-x="1382" vert-adv-y="2048"  />

      
      <glyph glyph-name="uni011E" unicode="&#x011E;" d="M1599 0L1599 748L852 748L852 477L1167 477L1167 473L1159 457C1148 434 1117 401 1073 371C1029 341 951 315 858 315C739 315 654 352 601 426C548 500 522 597 522 717C522 836 550 932 607 1007C664 1081 749 1118 862 1118C961 1118 1045 1081 1087 1043C1108 1024 1126 1002 1143 977C1175 928 1177 912 1180 901L1593 901L1589 932C1575 991 1542 1119 1433 1237C1395 1276 1352 1312 1304 1345C1207 1409 1045 1454 862 1454C630 1454 447 1389 314 1258C180 1127 113 946 113 715C113 484 178 304 307 175C436 45 614-20 842-20C957-20 1064 15 1124 49C1154 66 1182 85 1208 107C1260 150 1267 163 1272 174L1284 174L1284 0ZM1112 1677C1173 1722 1204 1791 1204 1884L1204 1888L967 1888L967 1884C967 1837 932 1802 856 1802C780 1802 745 1837 745 1884L745 1888L508 1888L508 1884C508 1791 539 1722 600 1677C661 1631 747 1608 856 1608C965 1608 1051 1631 1112 1677Z"  horiz-adv-x="1742" vert-adv-y="2048"  />

      
      </font>
</defs>
</svg>
